<?xml version="1.0" encoding="UTF-8" standalone="no"?>
<svg
   width="146"
   height="48.433"
   viewBox="0 0 146 48.433"
   version="1.1"
   id="svg157"
   sodipodi:docname="unitygroup.svg"
   inkscape:version="1.2.2 (732a01da63, 2022-12-09)"
   xmlns:inkscape="http://www.inkscape.org/namespaces/inkscape"
   xmlns:sodipodi="http://sodipodi.sourceforge.net/DTD/sodipodi-0.dtd"
   xmlns="http://www.w3.org/2000/svg"
   xmlns:svg="http://www.w3.org/2000/svg">
  <defs
     id="defs161" />
  <sodipodi:namedview
     id="namedview159"
     pagecolor="#ffffff"
     bordercolor="#000000"
     borderopacity="0.25"
     inkscape:showpageshadow="2"
     inkscape:pageopacity="0.0"
     inkscape:pagecheckerboard="0"
     inkscape:deskcolor="#d1d1d1"
     showgrid="false"
     inkscape:zoom="8.4863014"
     inkscape:cx="79.363196"
     inkscape:cy="24.274415"
     inkscape:window-width="1920"
     inkscape:window-height="1009"
     inkscape:window-x="1912"
     inkscape:window-y="-8"
     inkscape:window-maximized="1"
     inkscape:current-layer="svg157" />
  <path
     d="m 24.294,19.965 8.3,8.166 V 9.676 h -8.3 z"
     id="path137"
     style="fill:#ffffff" />
  <path
     d="m 24.264,31.181 v 2.835 c -0.186,4.055 -1.6,5.447 -5.815,5.726 l -1.283,0.086 H 15.429 L 14.142,39.745 C 9.673,39.454 8.311,37.905 8.311,33.114 L 8.287,9.681 H 0.019 L 0.001,33.512 c 0,8.62 4.973,13.905 13.672,14.459 l 1.618,0.1 h 2.019 l 1.621,-0.106 c 8.682,-0.57 13.665,-5.838 13.665,-14.455 v -2.321 z"
     id="path139"
     style="fill:#ffffff" />
  <path
     d="m 32.592,31.181 -8.3,-8.232 h -9.744 v 8.232 z"
     fill="#ff7800"
     id="path141" />
  <path
     d="m 66.006,25.12 c 0,3.168 0.521,3.559 2.906,3.69 v 1.561 l -6.161,1.563 H 62.1 a 10.1,10.1 0 0 1 -1.085,-3.688 9.053,9.053 0 0 1 -7.288,3.641 c -3.6,0 -6.074,-1.823 -6.074,-5.946 v -9.805 c 0,-3.168 -0.563,-3.6 -2.776,-3.688 V 10.8 l 7.072,-1.605 h 1 v 15.576 c 0,2.515 0.954,3.514 2.993,3.514 a 6.538,6.538 0 0 0 4.773,-2.169 v -9.979 c 0,-3.168 -0.564,-3.6 -2.777,-3.688 V 10.801 L 65.01,9.196 h 1 v 15.921 z"
     id="path143"
     style="fill:#ffffff" />
  <path
     d="m 92.598,26.596 c 0,2.473 0.478,2.907 2.691,3.036 v 1.739 h -10.8 v -1.74 c 2.473,-0.086 2.82,-0.607 2.82,-2.863 V 16.53 c 0,-2.6 -1.085,-3.558 -2.994,-3.558 a 7.3,7.3 0 0 0 -5.119,2.126 v 11.673 c 0,2.256 0.347,2.776 2.819,2.863 v 1.737 H 71.036 v -1.74 c 2.342,-0.129 2.863,-0.563 2.863,-3.036 V 16.14 c 0,-3.168 -0.564,-3.6 -2.907,-3.688 V 10.803 L 77.37,9.068 h 0.65 a 11.719,11.719 0 0 1 1,3.861 c 1.908,-2.083 4.121,-3.818 7.5,-3.818 3.515,0 6.074,2.084 6.074,6.248 v 11.238 z"
     id="path145"
     style="fill:#ffffff" />
  <path
     d="m 97.541,31.368 v -1.736 c 2.343,-0.129 2.863,-0.563 2.863,-3.035 V 16.14 c 0,-3.168 -0.565,-3.6 -2.907,-3.688 v -1.649 l 7.375,-1.605 h 0.824 v 17.4 c 0,2.473 0.348,2.949 2.82,3.035 v 1.736 z m 5.207,-24.774 a 3.3,3.3 0 1 1 3.341,-3.3 3.3,3.3 0 0 1 -3.341,3.3"
     id="path147"
     style="fill:#ffffff" />
  <path
     d="m 121.098,12.542 h -4.555 v 12.321 c 0,3.255 0.434,4.295 2.6,4.295 a 7.967,7.967 0 0 0 2.473,-0.477 l 0.522,1.908 a 9.9,9.9 0 0 1 -5.164,1.39 c -3.644,0 -5.727,-1.519 -5.727,-6.074 V 12.542 h -2.6 v -1.866 l 2.908,-1.085 a 15.932,15.932 0 0 1 1.995,-5.858 l 3.385,-0.521 a 53.581,53.581 0 0 0 -0.391,6.422 h 5.205 z"
     id="path149"
     style="fill:#ffffff" />
  <path
     d="m 126.043,36.834 c 3.6,-0.739 6.334,-1.693 7.766,-5.684 l -2.082,0.217 a 72.475,72.475 0 0 0 -2.429,-7.766 l -3.385,-9.284 c -0.781,-2.169 -1.344,-2.689 -2.994,-2.907 V 9.631 h 10.8 v 1.777 c -2.039,0.087 -2.689,0.434 -2.689,1.258 a 5.378,5.378 0 0 0 0.3,1.085 l 3.037,9.024 a 29.075,29.075 0 0 1 1.172,4.642 h 0.174 a 38.053,38.053 0 0 1 1.083,-4.078 l 2.994,-9.588 a 6.627,6.627 0 0 0 0.261,-0.954 c 0.086,-1 -0.564,-1.3 -2.733,-1.389 V 9.63 h 8.677 v 1.778 c -1.736,0.217 -2.3,0.607 -3.079,2.82 l -6.2,17.4 c -1.823,5.162 -4.252,8.027 -8.981,8.851 z"
     id="path151"
     style="fill:#ffffff" />
  <path
     d="m 113.079,42.755 v -4.41 h 2.18 c 1.9,0 2.685,0.813 2.685,2.213 0,1.383 -0.781,2.2 -2.685,2.2 z m 2.18,1.269 c 2.6,0 4.084,-1.3 4.084,-3.466 0,-2.181 -1.5,-3.482 -4.084,-3.482 h -3.58 v 11.227 h 1.4 v -4.282 z m -13.765,-6.948 v 6.671 c 0,2.457 -0.944,3.417 -2.669,3.417 -1.725,0 -2.669,-0.96 -2.669,-3.417 v -6.671 h -1.4 v 6.671 c 0,3.3 1.579,4.686 4.068,4.686 2.489,0 4.068,-1.383 4.068,-4.7 v -6.655 z m -21.689,4.995 c 0,-2.783 0.944,-3.856 2.668,-3.856 1.724,0 2.669,1.074 2.669,3.856 v 1.237 c 0,2.782 -0.944,3.856 -2.669,3.856 -1.725,0 -2.668,-1.074 -2.668,-3.856 z m 6.736,1.237 v -1.237 c 0,-3.629 -1.578,-5.125 -4.068,-5.125 -2.49,0 -4.068,1.5 -4.068,5.125 v 1.237 c 0,3.629 1.579,5.125 4.068,5.125 2.489,0 4.068,-1.5 4.068,-5.125 M 64.528,42.299 v -3.954 h 2.18 c 1.9,0 2.685,0.586 2.685,1.985 0,1.383 -0.781,1.969 -2.685,1.969 z m 6.557,6 -2.506,-4.979 a 2.858,2.858 0 0 0 2.213,-2.994 c 0,-2.18 -1.5,-3.254 -4.084,-3.254 h -3.58 v 11.227 h 1.4 v -4.735 h 2.652 l 2.343,4.735 z M 50.828,42.657 v 1.269 h 2.669 c -0.147,2.327 -1.139,3.238 -2.717,3.238 -1.725,0 -2.669,-1.074 -2.669,-3.856 v -1.237 c 0,-2.783 0.944,-3.856 2.669,-3.856 1.432,0 2.31,0.683 2.668,2.359 h 1.367 A 3.78,3.78 0 0 0 50.78,36.946 c -2.49,0 -4.068,1.5 -4.068,5.125 v 1.237 c 0,3.629 1.578,5.125 4.068,5.125 2.49,0 4.133,-1.5 4.133,-5.125 v -0.651 z"
     id="path153"
     style="fill:#ffffff" />
</svg>
