<?xml version="1.0" encoding="UTF-8" standalone="no"?>
<svg
   version="1.1"
   id="AW"
   x="0px"
   y="0px"
   viewBox="0 0 300 60"
   xml:space="preserve"
   sodipodi:docname="finastra.svg"
   inkscape:export-filename="finastra.svg"
   inkscape:export-xdpi="96"
   inkscape:export-ydpi="96"
   width="300"
   height="60"
   xmlns:inkscape="http://www.inkscape.org/namespaces/inkscape"
   xmlns:sodipodi="http://sodipodi.sourceforge.net/DTD/sodipodi-0.dtd"
   xmlns="http://www.w3.org/2000/svg"
   xmlns:svg="http://www.w3.org/2000/svg"><defs
   id="defs18" /><sodipodi:namedview
   id="namedview16"
   pagecolor="#ffffff"
   bordercolor="#000000"
   borderopacity="0.25"
   inkscape:showpageshadow="2"
   inkscape:pageopacity="0.0"
   inkscape:pagecheckerboard="0"
   inkscape:deskcolor="#d1d1d1"
   showgrid="false" />
  <style
   type="text/css"
   id="style2">
	.st0{fill:url(#SVGID_1_);}
</style>
  
  
  
  
  <linearGradient
   id="SVGID_1_"
   gradientUnits="userSpaceOnUse"
   x1="38.571201"
   y1="100.3248"
   x2="263.68091"
   y2="100.3248"
   gradientTransform="matrix(1.2080815,0,0,1.2080815,-32.035907,-89.525822)">
    <stop
   offset="0"
   style="stop-color:#C137A2"
   id="stop8" />
    <stop
   offset="1"
   style="stop-color:#694ED6"
   id="stop10" />
  </linearGradient>
  <path
   class="st0"
   d="m 24.079479,21.424375 v 6.112897 H 38.226113 V 35.63142 H 24.079479 V 50.04383 H 14.559797 V 13.342309 h 24.705266 v 8.082066 z M 46.863896,50.04383 V 13.342309 h 9.519683 V 50.04383 Z m 45.617158,0 L 74.939711,27.585596 V 50.03175 H 65.420028 V 13.342309 h 9.519683 L 92.493134,35.78847 V 13.342309 h 9.519686 V 50.04383 Z m 43.092266,0 -2.36785,-6.37867 h -13.14392 l -2.52489,6.37867 h -10.00292 l 13.8567,-36.701521 h 10.55863 l 13.80837,36.701521 z m -8.91564,-25.309308 -3.96251,11.670068 h 7.92501 z m 73.25806,-3.310147 V 50.03175 h -9.51968 V 21.424375 h -8.819 v -8.082066 h 27.32681 v 8.082066 z M 233.91115,50.04383 224.77806,35.9576 v 14.08623 h -9.51969 V 13.342309 h 14.85941 c 3.46719,0 6.4874,0.664448 8.96396,3.249749 2.08998,2.150383 3.14102,5.170581 3.14102,8.142464 0,2.307437 -0.71278,4.892731 -2.08999,6.765258 -1.48593,2.029577 -3.4672,2.97189 -5.88335,3.51552 l 11.50093,15.01645 h -11.8392 z m -7.32097,-29.33222 h -1.81212 v 9.084775 h 1.81212 c 2.97188,0 5.83503,-1.159759 5.83503,-4.566547 0,-3.418868 -2.92356,-4.518228 -5.83503,-4.518228 z m 49.7488,29.33222 -2.36784,-6.37867 h -13.14393 l -2.5249,6.37867 H 248.239 l 14.08623,-36.701521 h 10.40158 l 13.80837,36.701521 z m -8.91564,-25.309308 -3.96252,11.670068 h 7.92502 z M 176.21318,44.61954 c -2.392,4.66319 -8.1183,6.49948 -13.05936,6.49948 -4.61487,0 -9.24182,-1.64299 -13.02312,-4.25244 l 4.24037,-7.69549 c 2.392,2.11415 5.21891,3.7813 8.50489,3.7813 2.3316,0 4.61487,-1.00271 4.61487,-3.67257 0,-6.45115 -15.72922,-1.55842 -15.72922,-14.557379 0,-7.502184 5.11019,-12.503647 12.56404,-12.503647 4.10748,0 7.71964,0.881904 11.33181,2.766507 l -3.23765,7.840456 c -1.83629,-1.498022 -4.03499,-2.597382 -6.48741,-2.597382 -1.88461,0 -4.10747,1.051036 -4.10747,3.225588 0,5.448442 15.77754,1.884595 15.77754,14.557377 0,2.11414 -0.38658,4.7236 -1.38929,6.6082 z"
   id="path13"
   style="fill:url(#SVGID_1_);stroke-width:1.20808"
   inkscape:export-filename="path13.svg"
   inkscape:export-xdpi="96"
   inkscape:export-ydpi="96" />
</svg>
