<svg xmlns="http://www.w3.org/2000/svg" width="78" height="30" fill="none">
    <path fill="#000" d="M7.283 23.823V.28H.945v29.437h18.776v-5.895H7.283ZM37.367.281h-9.914v29.437h6.34V6.127h3.037c3.17 0 5.145 1.557 5.145 4.46v.082c0 2.524-1.852 4.457-5.02 4.457h-1.33v5.761h1.123c6.462 0 11.648-3.532 11.648-10.343v-.084c0-6.015-4.157-10.179-11.029-10.179ZM66.03.281h-9.913v29.437h6.34V6.127h3.037c3.17 0 5.145 1.557 5.145 4.46v.082c0 2.524-1.854 4.457-5.022 4.457h-1.33v5.761h1.124c6.463 0 11.648-3.532 11.648-10.343v-.084C77.059 4.445 72.903.281 66.03.281Z"/>
</svg>
