<?xml version="1.0" encoding="UTF-8" standalone="yes"?>
<svg version="1.1" id="Warstwa_1" xmlns="http://www.w3.org/2000/svg" xmlns:xlink="http://www.w3.org/1999/xlink" x="0px" y="0px" viewBox="0 0 243.1999969 40.7000008" style="enable-background:new 0 0 243.1999969 40.7000008;" xml:space="preserve">
  <style type="text/css">
	.st0{fill:#FFFFFF;}
	.st1{fill-rule:evenodd;clip-rule:evenodd;fill:#00953A;}
</style>
  <g>
    <path class="st0" d="M206.3999939,37.8999977V3.0999956h1v34.7999992&#xA;&#x9;&#x9;C207.3999939,37.8999939,206.3999939,37.8999939,206.3999939,37.8999977z"/>
  </g>
  <g>
    <path class="st0" d="M218.5,10.4999952c0,0.1000004,0,0.1999998,0,0.3000002s0,0.1999998,0,0.1999998&#xA;&#x9;&#x9;c0,0.1000004,0,0.1000004-0.1000061,0.1000004h-0.1000061h-3.8999939c-0.1000061,0-0.3000031,0-0.3999939-0.1000004&#xA;&#x9;&#x9;c-0.1000061-0.1000004-0.1000061-0.1999998-0.1000061-0.3999996V3.3999958V3.2999959L214,3.199996c0,0,0.1999969,0,0.3000031,0&#xA;&#x9;&#x9;s0.3000031,0,0.3999939,0c0.1999969,0,0.3000031,0,0.3999939,0c0.1000061,0,0.1999969,0,0.3000031,0&#xA;&#x9;&#x9;S215.5,3.199996,215.5,3.2999959v0.0999999v6.499999h2.6999969h0.1000061l0.1000061,0.1000004c0,0.1000004,0,0.1000004,0,0.1999998&#xA;&#x9;&#x9;C218.5,10.2999954,218.5,10.3999949,218.5,10.4999952z"/>
  </g>
  <g>
    <path class="st0" d="M224.8999939,8.0999956c0,0.1999998,0,0.3000002-0.1000061,0.3999996&#xA;&#x9;&#x9;c-0.1000061,0.1000004-0.1999969,0.1000004-0.3999939,0.1000004h-3.6000061c0,0.1999998,0,0.5,0.1000061,0.6000004&#xA;&#x9;&#x9;c0.1000061,0.1999998,0.1999969,0.3999996,0.3000031,0.5s0.3000031,0.1999998,0.5,0.3000002s0.5,0.1000004,0.6999969,0.1000004&#xA;&#x9;&#x9;c0.3000031,0,0.5,0,0.8000031-0.1000004c0.1999969,0,0.3999939-0.1000004,0.6000061-0.1000004&#xA;&#x9;&#x9;s0.3000031-0.1000004,0.3999939-0.1000004c0.1000061,0,0.1999969-0.1000004,0.3000031-0.1000004h0.1000061&#xA;&#x9;&#x9;c0,0,0,0,0.1000061,0.1000004c0,0,0,0.1000004,0,0.1999998c0,0.1000004,0,0.1999998,0,0.3000002s0,0.1999998,0,0.1999998&#xA;&#x9;&#x9;c0,0.1000004,0,0.1000004,0,0.1999998v0.1000004c0,0,0,0.1000004-0.1000061,0.1000004c0,0-0.1000061,0.1000004-0.1999969,0.1000004&#xA;&#x9;&#x9;c-0.1000061,0-0.3000031,0.1000004-0.5,0.1000004s-0.3999939,0.1000004-0.6999969,0.1000004s-0.5,0.1000004-0.8000031,0.1000004&#xA;&#x9;&#x9;c-0.5,0-1-0.1000004-1.3999939-0.1999998c-0.3999939-0.1000004-0.6999969-0.3000002-1-0.6000004s-0.5-0.6000004-0.6000061-1&#xA;&#x9;&#x9;s-0.1999969-0.8000002-0.1999969-1.3999996c0-0.4999995,0.1000061-0.8999996,0.1999969-1.2999997&#xA;&#x9;&#x9;c0.1000061-0.4000001,0.3000031-0.6999998,0.6000061-1s0.6000061-0.5,1-0.5999999s0.8000031-0.1999998,1.3000031-0.1999998&#xA;&#x9;&#x9;s0.8999939,0.0999999,1.3000031,0.1999998c0.3999939,0.0999999,0.6000061,0.3000002,0.8999939,0.5999999&#xA;&#x9;&#x9;c0.1999969,0.1999998,0.3999939,0.5,0.5,0.9000001s0.1999969,0.6999998,0.1999969,1.0999999v0.2999978H224.8999939z&#xA;&#x9;&#x9; M223.1999969,7.5999956c0-0.4000001-0.1000061-0.8000002-0.3000031-1c-0.1999969-0.3000002-0.5-0.4000001-0.8999939-0.4000001&#xA;&#x9;&#x9;c-0.1999969,0-0.3999939,0-0.6000061,0.0999999S221.0999908,6.4999952,221,6.5999956&#xA;&#x9;&#x9;c-0.1000061,0.0999999-0.1999969,0.3000002-0.1999969,0.4000001c-0.1000061,0.1999998-0.1000061,0.4000001-0.1000061,0.5h2.5&#xA;&#x9;&#x9;V7.5999956z"/>
  </g>
  <g>
    <path class="st0" d="M229.6000061,10.4999952c0,0.1999998,0,0.3000002,0,0.3999996&#xA;&#x9;&#x9;c0,0.1000004-0.1000061,0.1999998-0.1000061,0.1999998s-0.1000061,0.1000004-0.1999969,0.1000004&#xA;&#x9;&#x9;c-0.1000061,0-0.1999969,0.1000004-0.3000031,0.1000004s-0.1999969,0-0.3000031,0.1000004c-0.1000061,0-0.1999969,0-0.3999939,0&#xA;&#x9;&#x9;c-0.3000031,0-0.6000061,0-0.8999939-0.1000004c-0.1999969-0.1000004-0.3999939-0.1999998-0.6000061-0.3999996&#xA;&#x9;&#x9;c-0.1999969-0.1999998-0.3000031-0.3999996-0.3999939-0.6000004s-0.1000061-0.5-0.1000061-0.8999996V6.4999957h-0.6999969&#xA;&#x9;&#x9;c-0.1000061,0-0.1000061,0-0.1999969-0.0999999c0-0.0999999-0.1000061-0.3000002-0.1000061-0.5&#xA;&#x9;&#x9;c0-0.0999999,0-0.1999998,0-0.3000002c0-0.0999999,0-0.0999999,0-0.1999998s0-0.0999999,0.1000061-0.0999999h0.1000061h0.6999969&#xA;&#x9;&#x9;V3.9999957V3.8999958l0.1000061-0.0999999c0.1000061,0,0.1999969,0,0.3000031,0s0.1999969,0,0.3999939,0s0.3000031,0,0.3999939,0&#xA;&#x9;&#x9;c0.1000061,0,0.1999969,0,0.3000031,0s0.1000061,0.0999999,0.1000061,0.0999999v0.0999999v1.1999998h1.3000031h0.1000061&#xA;&#x9;&#x9;l0.1000061,0.0999999c0,0,0,0.0999999,0,0.1999998s0,0.1999998,0,0.3000002c0,0.1999998,0,0.4000001-0.1000061,0.5&#xA;&#x9;&#x9;c0,0.0999999-0.1000061,0.0999999-0.1999969,0.0999999h-1.3000031v2.5999999c0,0.3000002,0.1000061,0.5,0.1999969,0.6999998&#xA;&#x9;&#x9;c0.1000061,0.1999998,0.3000031,0.1999998,0.5,0.1999998c0.1000061,0,0.1999969,0,0.1999969,0s0.1000061,0,0.1999969,0&#xA;&#x9;&#x9;c0.1000061,0,0.1000061,0,0.1000061,0h0.1000061h0.1000061c0,0,0,0,0.1000061,0.1000004c0,0,0,0.1000004,0,0.1999998&#xA;&#x9;&#x9;C229.6000061,10.2999954,229.6000061,10.3999949,229.6000061,10.4999952z"/>
  </g>
  <g>
    <path class="st0" d="M232.8999939,3.1999958c0,0.2,0,0.3,0,0.4000001c0,0.0999999,0,0.3-0.1000061,0.3999999&#xA;&#x9;&#x9;c0,0.0999999-0.1000061,0.1999998-0.1999969,0.4000001c-0.1000061,0.0999999-0.1000061,0.1999998-0.1999969,0.4000001&#xA;&#x9;&#x9;L231.5,5.9999957l-0.1000061,0.0999999l-0.1000061,0.0999999c-0.1000061,0-0.1000061,0-0.1999969,0&#xA;&#x9;&#x9;c-0.1000061,0-0.1999969,0-0.3000031,0s-0.1999969,0-0.3000031,0s-0.1000061,0-0.1999969,0c0,0-0.1000061,0-0.1000061-0.0999999&#xA;&#x9;&#x9;V5.9999957l0.8000031-1.6999998v-1c0-0.0999999,0-0.3,0.1000061-0.3c0-0.0999999,0.1000061-0.2,0.1999969-0.2&#xA;&#x9;&#x9;s0.1999969-0.0999999,0.3000031-0.0999999s0.3000031,0,0.3999939,0c0.1999969,0,0.3000031,0,0.3999939,0&#xA;&#x9;&#x9;c0.1000061,0,0.1999969,0,0.3000031,0.0999999s0.1000061,0.0999999,0.1999969,0.2&#xA;&#x9;&#x9;C232.8999939,2.8999958,232.8999939,3.0999956,232.8999939,3.1999958z"/>
  </g>
  <g>
    <path class="st0" d="M238.6000061,9.4999952c0,0.3000002-0.1000061,0.6000004-0.1999969,0.8000002&#xA;&#x9;&#x9;c-0.1000061,0.1999998-0.3000031,0.3999996-0.5,0.6000004c-0.1999969,0.1999998-0.5,0.3000002-0.8000031,0.3999996&#xA;&#x9;&#x9;c-0.3000031,0.1000004-0.6999969,0.1000004-1,0.1000004c-0.1999969,0-0.3999939,0-0.6000061,0&#xA;&#x9;&#x9;c-0.1999969,0-0.3999939-0.1000004-0.5-0.1000004c-0.1999969,0-0.3000031-0.1000004-0.3999939-0.1000004&#xA;&#x9;&#x9;c-0.1000061,0-0.1999969-0.1000004-0.1999969-0.1000004s-0.1000061-0.1000004-0.1000061-0.1999998&#xA;&#x9;&#x9;c0-0.1000004,0-0.1999998,0-0.3999996c0-0.1000004,0-0.1999998,0-0.3000002s0-0.1000004,0-0.1999998&#xA;&#x9;&#x9;c0,0,0-0.1000004,0.1000061-0.1000004s0.1000061,0,0.1000061,0s0.1000061,0,0.1999969,0.1000004&#xA;&#x9;&#x9;c0.1000061,0.1000004,0.1999969,0.1000004,0.3999939,0.1999998s0.3000031,0.1000004,0.5,0.1999998&#xA;&#x9;&#x9;S236,10.4999952,236.2000122,10.4999952c0.1999969,0,0.3000031,0,0.3999939,0c0.1000061,0,0.1999969-0.1000004,0.3000031-0.1000004&#xA;&#x9;&#x9;c0.1000061-0.1000004,0.1999969-0.1000004,0.1999969-0.1999998c0-0.1000004,0.1000061-0.1999998,0.1000061-0.3000002&#xA;&#x9;&#x9;s0-0.1999998-0.1000061-0.3000002s-0.1999969-0.1999998-0.3000031-0.1999998&#xA;&#x9;&#x9;c-0.1000061-0.1000004-0.3000031-0.1000004-0.5-0.1999998c-0.1999969-0.1000004-0.3000031-0.1000004-0.5-0.1999998&#xA;&#x9;&#x9;c-0.1999969-0.1000004-0.3999939-0.1999998-0.5-0.1999998c-0.1999969-0.1000004-0.3000031-0.1999998-0.5-0.3000002&#xA;&#x9;&#x9;C234.6999969,8.3999949,234.6000061,8.199995,234.5,7.9999957c-0.1000061-0.1999998-0.1000061-0.4000001-0.1000061-0.6999998&#xA;&#x9;&#x9;c0-0.3000002,0.1000061-0.5,0.1999969-0.6999998c0.1000061-0.1999998,0.3000031-0.4000001,0.5-0.5999999&#xA;&#x9;&#x9;s0.5-0.3000002,0.8000031-0.4000001s0.6000061-0.0999999,1-0.0999999c0.1999969,0,0.3999939,0,0.5,0&#xA;&#x9;&#x9;c0.1999969,0,0.3000031,0.0999999,0.5,0.0999999c0.1000061,0,0.3000031,0.0999999,0.3999939,0.0999999&#xA;&#x9;&#x9;c0.1000061,0,0.1999969,0.0999999,0.1999969,0.0999999l0.1000061,0.0999999v0.0999999c0,0,0,0.0999999,0,0.1999998&#xA;&#x9;&#x9;s0,0.0999999,0,0.1999998s0,0.1999998,0,0.3000002c0,0.0999999,0,0.0999999,0,0.1999998c0,0,0,0.0999999-0.1000061,0.0999999&#xA;&#x9;&#x9;h-0.1000061c0,0-0.1000061,0-0.1999969-0.0999999c-0.1000061,0-0.1999969-0.0999999-0.3000031-0.0999999&#xA;&#x9;&#x9;s-0.3000031-0.0999999-0.3999939-0.0999999c-0.1999969,0-0.3999939-0.0999999-0.6000061-0.0999999&#xA;&#x9;&#x9;c-0.1999969,0-0.3000031,0-0.3999939,0c-0.1000061,0-0.1999969,0.0999999-0.3000031,0.0999999&#xA;&#x9;&#x9;c-0.1000061,0.0999999-0.1000061,0.0999999-0.1999969,0.1999998c0,0.0999999-0.1000061,0.1999998-0.1000061,0.1999998&#xA;&#x9;&#x9;c0,0.0999999,0,0.1999998,0.1000061,0.3000002c0.1000061,0.0999999,0.1999969,0.1999998,0.3000031,0.1999998&#xA;&#x9;&#x9;c0.1000061,0.0999999,0.3000031,0.0999999,0.5,0.1999998s0.3999939,0.0999999,0.5,0.1999998&#xA;&#x9;&#x9;c0.1000061,0.099999,0.3999939,0.0999999,0.5,0.1999993c0.1999969,0.1000004,0.3000031,0.1999998,0.5,0.3000002&#xA;&#x9;&#x9;c0.1000061,0.1000004,0.1999969,0.3000002,0.3000031,0.5C238.6000061,8.9999952,238.6000061,9.199995,238.6000061,9.4999952z"/>
  </g>
  <g>
    <path class="st0" d="M219.6000061,22.1999969c0,0.3999996-0.1000061,0.7999992-0.3000031,1.1000004&#xA;&#x9;&#x9;c-0.1999969,0.2999992-0.3999939,0.6000004-0.6999969,0.7999992c-0.3000031,0.2000008-0.6000061,0.3999996-1,0.5&#xA;&#x9;&#x9;s-0.8000031,0.2000008-1.1999969,0.2000008c-0.3000031,0-0.6000061,0-0.8000031-0.1000004&#xA;&#x9;&#x9;c-0.3000031,0-0.5-0.1000004-0.6999969-0.2000008s-0.3999939-0.1000004-0.5-0.2000008s-0.1999969-0.1000004-0.3000031-0.2000008&#xA;&#x9;&#x9;S214,23.9999943,214,23.8999939s0-0.2000008,0-0.3999996c0-0.1000004,0-0.2000008,0-0.2999992c0-0.1000004,0-0.2000008,0-0.2000008&#xA;&#x9;&#x9;c0-0.1000004,0-0.1000004,0.1000061-0.1000004h0.1000061c0.1000061,0,0.1000061,0,0.3000031,0.1000004&#xA;&#x9;&#x9;c0.1000061,0.1000004,0.3000031,0.1000004,0.3999939,0.2000008c0.1999969,0.1000004,0.3999939,0.2000008,0.6000061,0.2000008&#xA;&#x9;&#x9;c0.1999969,0.1000004,0.5,0.1000004,0.8999939,0.1000004c0.1999969,0,0.3999939,0,0.6000061-0.1000004&#xA;&#x9;&#x9;c0.1999969,0,0.3000031-0.1000004,0.3999939-0.2000008c0.1000061-0.1000004,0.1999969-0.2000008,0.3000031-0.2999992&#xA;&#x9;&#x9;c0.1000061-0.1000004,0.1000061-0.2999992,0.1000061-0.3999996c0-0.2000008-0.1000061-0.2999992-0.1999969-0.5&#xA;&#x9;&#x9;c-0.1000061-0.1000004-0.1999969-0.2000008-0.3999939-0.2999992c-0.1999969-0.1000004-0.3999939-0.2000008-0.6000061-0.2999992&#xA;&#x9;&#x9;c-0.1999969-0.1000004-0.3999939-0.2000008-0.6999969-0.2999992c-0.1999969-0.1000004-0.5-0.2000008-0.6999969-0.2999992&#xA;&#x9;&#x9;c-0.1999969-0.1000004-0.3999939-0.2999992-0.6000061-0.5c-0.1999969-0.2000008-0.3000031-0.3999996-0.3999939-0.6000004&#xA;&#x9;&#x9;c-0.1000061-0.2000008-0.1999969-0.5-0.1999969-0.8999996s0.1000061-0.7000008,0.1999969-1&#xA;&#x9;&#x9;c0.1999969-0.2999992,0.3999939-0.5,0.6000061-0.7000008c0.3000031-0.2000008,0.6000061-0.2999992,0.8999939-0.3999996&#xA;&#x9;&#x9;c0.3999939-0.1000004,0.6999969-0.1000004,1.1000061-0.1000004c0.1999969,0,0.3999939,0,0.6000061,0&#xA;&#x9;&#x9;c0.1999969,0,0.3999939,0.1000004,0.6000061,0.1000004c0.1999969,0,0.3000031,0.1000004,0.5,0.2000008&#xA;&#x9;&#x9;C218.6000519,17,218.7000427,17,218.8000488,17.1000004l0.1000061,0.1000004v0.1000004c0,0,0,0.1000004,0,0.2000008&#xA;&#x9;&#x9;s0,0.2000008,0,0.2999992c0,0.1000004,0,0.2000008,0,0.2999992c0,0.1000004,0,0.2000008,0,0.2000008&#xA;&#x9;&#x9;s0,0.1000004-0.1000061,0.1000004h-0.1000061c0,0-0.1000061,0-0.1999969-0.1000004&#xA;&#x9;&#x9;c-0.1000061-0.1000004-0.1999969-0.1000004-0.3999939-0.2000008s-0.3000031-0.1000004-0.5-0.2000008&#xA;&#x9;&#x9;s-0.3999939-0.1000004-0.6999969-0.1000004c-0.1999969,0-0.3999939,0-0.5,0.1000004&#xA;&#x9;&#x9;c-0.1000061,0-0.3000031,0.1000004-0.3999939,0.2000008c-0.1000061,0.1000004-0.1999969,0.2000008-0.1999969,0.2999992&#xA;&#x9;&#x9;c0,0.1000004-0.1000061,0.2000008-0.1000061,0.2999992c0,0.2000008,0.1000061,0.2999992,0.1999969,0.5&#xA;&#x9;&#x9;s0.1999969,0.2000008,0.3999939,0.2999992c0.1999969,0.1000004,0.3999939,0.2000008,0.6000061,0.2999992&#xA;&#x9;&#x9;c0.1999969,0.1000004,0.3999939,0.2000008,0.6999969,0.2999992c0.1999969,0.1000004,0.5,0.2000008,0.6999969,0.2999992&#xA;&#x9;&#x9;c0.1999969,0.1000004,0.3999939,0.2999992,0.6000061,0.5c0.1999969,0.2000008,0.3000031,0.3999996,0.3999939,0.6000004&#xA;&#x9;&#x9;C219.6000061,21.5999966,219.6000061,21.8999958,219.6000061,22.1999969z"/>
  </g>
  <g>
    <path class="st0" d="M226.8000031,21.5999966c0,0.5-0.1000061,0.8999996-0.1999969,1.2999992&#xA;&#x9;&#x9;c-0.1000061,0.3999996-0.3000031,0.7000008-0.6000061,1s-0.6000061,0.5-1,0.7000008s-0.8999939,0.2000008-1.3999939,0.2000008&#xA;&#x9;&#x9;s-1-0.1000004-1.3999939-0.2000008s-0.6999969-0.2999992-1-0.6000004c-0.3000031-0.2999992-0.3999939-0.6000004-0.6000061-1&#xA;&#x9;&#x9;c-0.1000061-0.3999996-0.1999969-0.7999992-0.1999969-1.2999992s0.1000061-0.8999996,0.1999969-1.2999992&#xA;&#x9;&#x9;c0.1000061-0.3999996,0.3000031-0.7000008,0.6000061-1s0.6000061-0.5,1-0.6000004&#xA;&#x9;&#x9;c0.3999939-0.2000008,0.8999939-0.2000008,1.3999939-0.2000008s1,0.1000004,1.3999939,0.2000008s0.6999969,0.2999992,1,0.6000004&#xA;&#x9;&#x9;c0.3000031,0.2999992,0.3999939,0.6000004,0.6000061,1C226.8000031,20.6999969,226.8000031,21.0999966,226.8000031,21.5999966z&#xA;&#x9;&#x9; M225.1000061,21.5999966c0-0.2999992,0-0.5-0.1000061-0.7999992s-0.1000061-0.3999996-0.1999969-0.6000004&#xA;&#x9;&#x9;c-0.1000061-0.2000008-0.3000031-0.2999992-0.3999939-0.3999996s-0.3999939-0.1000004-0.6999969-0.1000004&#xA;&#x9;&#x9;c-0.1999969,0-0.5,0-0.6000061,0.1000004c-0.1999969,0.1000004-0.3000031,0.2000008-0.5,0.3999996&#xA;&#x9;&#x9;c-0.1000061,0.2000008-0.1999969,0.3999996-0.3000031,0.6000004s-0.1000061,0.5-0.1000061,0.7999992s0,0.5,0.1000061,0.7999992&#xA;&#x9;&#x9;c0,0.2000008,0.1000061,0.3999996,0.1999969,0.6000004c0.1000061,0.2000008,0.3000031,0.2999992,0.3999939,0.3999996&#xA;&#x9;&#x9;c0.1999969,0.1000004,0.3999939,0.1000004,0.6999969,0.1000004s0.5,0,0.6999969-0.1000004s0.3000031-0.2000008,0.5-0.3999996&#xA;&#x9;&#x9;c0.1000061-0.2000008,0.1999969-0.3999996,0.3000031-0.6000004&#xA;&#x9;&#x9;C225.1000061,22.1999969,225.1000061,21.8999958,225.1000061,21.5999966z"/>
  </g>
  <g>
    <path class="st0" d="M229.8000031,24.3999958v0.1000004l-0.1000061,0.1000004c-0.1000061,0-0.1000061,0-0.3000031,0&#xA;&#x9;&#x9;c-0.1000061,0-0.1999969,0-0.3999939,0s-0.3000031,0-0.3999939,0c-0.1000061,0-0.1999969,0-0.3000031,0&#xA;&#x9;&#x9;s-0.1000061,0-0.1000061-0.1000004v-0.1000004v-8.1999989v-0.1000004l0.1000061-0.1000013&#xA;&#x9;&#x9;c0.1000061,0,0.1000061,0,0.3000031-0.1000004s0.1999969,0,0.3999939,0s0.3000031,0,0.3999939,0&#xA;&#x9;&#x9;c0.1000061,0,0.1999969,0,0.3000031,0.1000004c0.1000061,0,0.1000061,0.1000013,0.1000061,0.1000013v0.1000004V24.3999958z"/>
  </g>
  <g>
    <path class="st0" d="M236.8999939,18.8999958L236.8999939,18.8999958c0,0.1000004,0,0.1000004,0,0.2000008v0.1000004&#xA;&#x9;&#x9;c0,0,0,0.1000004,0,0.2000008l-1.8000031,5c0,0.1000004-0.1000061,0.1000004-0.1000061,0.2000008&#xA;&#x9;&#x9;c0,0-0.1000061,0.1000004-0.1999969,0.1000004c-0.1000061,0-0.1999969,0-0.3999939,0c-0.1000061,0-0.3000031,0-0.6000061,0&#xA;&#x9;&#x9;c-0.1999969,0-0.3999939,0-0.6000061,0c-0.1000061,0-0.3000031,0-0.3000031-0.1000004&#xA;&#x9;&#x9;c-0.1000061,0-0.1000061-0.1000004-0.1999969-0.1000004c0,0-0.1000061-0.1000004-0.1000061-0.2000008l-1.8000031-5&#xA;&#x9;&#x9;c0-0.1000004,0-0.2000008-0.1000061-0.2000008c0-0.1000004,0-0.1000004,0-0.1000004v-0.1000004v-0.1000004l0.1000061-0.1000004&#xA;&#x9;&#x9;c0.1000061,0,0.1000061,0,0.3000031,0c0.1000061,0,0.1999969,0,0.3999939,0s0.3000031,0,0.3999939,0&#xA;&#x9;&#x9;c0.1000061,0,0.1999969,0,0.3000031,0s0.1000061,0,0.1000061,0.1000004c0,0,0,0.1000004,0.1000061,0.1000004l1.3000031,4.1000004&#xA;&#x9;&#x9;v0.2000008v-0.2000008l1.3000031-4.1000004c0,0,0-0.1000004,0.1000061-0.1000004l0.1000061-0.1000004&#xA;&#x9;&#x9;c0.1000061,0,0.1000061,0,0.1999969,0c0.1000061,0,0.1999969,0,0.3999939,0s0.3000031,0,0.3999939,0s0.1999969,0,0.1999969,0&#xA;&#x9;&#x9;c0.1000061,0,0.1000061,0,0.1000061,0.1000004C236.8999939,18.7999954,236.8999939,18.7999954,236.8999939,18.8999958z"/>
  </g>
  <g>
    <path class="st0" d="M243.1999969,21.4999962c0,0.2000008,0,0.2999992-0.1000061,0.3999996&#xA;&#x9;&#x9;s-0.1999969,0.1000004-0.3999939,0.1000004h-3.6000061c0,0.2000008,0,0.5,0.1000061,0.6000004&#xA;&#x9;&#x9;c0.1000061,0.2000008,0.1999969,0.3999996,0.3000031,0.5s0.3000031,0.2000008,0.5,0.2999992&#xA;&#x9;&#x9;c0.1999969,0.1000004,0.5,0.1000004,0.6999969,0.1000004c0.3000031,0,0.5,0,0.8000031-0.1000004&#xA;&#x9;&#x9;c0.1999969,0,0.3999939-0.1000004,0.6000061-0.1000004c0.1999969,0,0.3000031-0.1000004,0.3999939-0.1000004&#xA;&#x9;&#x9;c0.1000061,0,0.1999969-0.1000004,0.3000031-0.1000004h0.1000061c0,0,0,0,0.1000061,0.1000004c0,0,0,0.1000004,0,0.2000008&#xA;&#x9;&#x9;s0,0.2000008,0,0.2999992c0,0.1000004,0,0.2000008,0,0.2000008c0,0.1000004,0,0.1000004,0,0.2000008v0.1000004&#xA;&#x9;&#x9;c0,0,0,0.1000004-0.1000061,0.1000004c0,0-0.1000061,0.1000004-0.1999969,0.1000004&#xA;&#x9;&#x9;c-0.1000061,0-0.3000031,0.1000004-0.5,0.1000004s-0.3999939,0.1000004-0.6999969,0.1000004s-0.5,0.1000004-0.8000031,0.1000004&#xA;&#x9;&#x9;c-0.5,0-1-0.1000004-1.3999939-0.2000008s-0.6999969-0.2999992-1-0.6000004c-0.3000031-0.2999992-0.5-0.6000004-0.6000061-1&#xA;&#x9;&#x9;s-0.1999969-0.7999992-0.1999969-1.3999996c0-0.5,0.1000061-0.8999996,0.1999969-1.2999992&#xA;&#x9;&#x9;c0.1000061-0.3999996,0.3000031-0.7000008,0.6000061-1s0.6000061-0.5,1-0.6000004s0.8000031-0.2000008,1.3000031-0.2000008&#xA;&#x9;&#x9;s0.8999939,0.1000004,1.3000031,0.2000008c0.3999939,0.1000004,0.6000061,0.2999992,0.8999939,0.6000004&#xA;&#x9;&#x9;c0.1999969,0.2000008,0.3999939,0.5,0.5,0.8999996c0.1000061,0.2999992,0.1999969,0.7000008,0.1999969,1.1000004v0.2999973&#xA;&#x9;&#x9;H243.1999969z M241.6000061,20.9999962c0-0.3999996-0.1000061-0.7999992-0.3000031-1&#xA;&#x9;&#x9;c-0.1999969-0.2999992-0.5-0.3999996-0.8999939-0.3999996c-0.1999969,0-0.3999939,0-0.6000061,0.1000004&#xA;&#x9;&#x9;c-0.1999969,0.1000004-0.3000031,0.2000008-0.3999939,0.2999992c-0.1000061,0.1000004-0.1999969,0.2999992-0.1999969,0.3999996&#xA;&#x9;&#x9;c-0.1000061,0.2000008-0.1000061,0.3999996-0.1000061,0.5h2.5V20.9999962z"/>
  </g>
  <g>
    <path class="st0" d="M216.3000031,37.6999969v0.0999985l-0.1000061,0.0999985c-0.1000061,0-0.1999969,0-0.3000031,0&#xA;&#x9;&#x9;s-0.3000031,0-0.3999939,0c-0.1999969,0-0.3000031,0-0.3999939,0c-0.1000061,0-0.1999969,0-0.3000031,0&#xA;&#x9;&#x9;s-0.1000061,0-0.1000061-0.0999985v-0.0999985v-7.6000004v-0.1000004l0.1000061-0.1000004c0.1000061,0,0.1999969,0,0.3000031,0&#xA;&#x9;&#x9;s0.1999969,0,0.3999939,0s0.3000031,0,0.3999939,0c0.1000061,0,0.1999969,0,0.3000031,0s0.1000061,0,0.1000061,0.1000004v0.1000004&#xA;&#x9;&#x9;V37.6999969z"/>
  </g>
  <g>
    <path class="st0" d="M221.6000061,37.0999947c0,0.2000008,0,0.2999992,0,0.4000015&#xA;&#x9;&#x9;c0,0.0999985-0.1000061,0.2000008-0.1000061,0.2000008s-0.1000061,0.0999985-0.1999969,0.0999985&#xA;&#x9;&#x9;c-0.1000061,0-0.1999969,0.0999985-0.3000031,0.0999985s-0.1999969,0-0.3000031,0.0999985c-0.1000061,0-0.1999969,0-0.3999939,0&#xA;&#x9;&#x9;c-0.3000031,0-0.6000061,0-0.8999939-0.0999985c-0.1999969-0.0999985-0.3999939-0.2000008-0.6000061-0.4000015&#xA;&#x9;&#x9;c-0.1999969-0.2000008-0.3000031-0.4000015-0.3999939-0.5999985c-0.1000061-0.2000008-0.1000061-0.5-0.1000061-0.9000015&#xA;&#x9;&#x9;v-2.7999992h-0.6999969c-0.1000061,0-0.1000061,0-0.1999969-0.0999985c0-0.0999985-0.1000061-0.2999992-0.1000061-0.5&#xA;&#x9;&#x9;c0-0.0999985,0-0.2000008,0-0.2999992s0-0.0999985,0-0.2000008c0,0,0-0.1000004,0.1000061-0.1000004h0.1000061h0.6999969&#xA;&#x9;&#x9;v-1.2000008v-0.1000004l0.1000061-0.1000004c0.1000061,0,0.1999969,0,0.3000031,0s0.1999969,0,0.3999939,0s0.3000031,0,0.3999939,0&#xA;&#x9;&#x9;c0.1000061,0,0.1999969,0,0.3000031,0s0.1000061,0.1000004,0.1000061,0.1000004v0.1000004v1.2000008h1.3000031h0.1000061&#xA;&#x9;&#x9;l0.1000061,0.1000004c0,0,0,0.0999985,0,0.2000008c0,0.0999985,0,0.2000008,0,0.2999992c0,0.2000008,0,0.4000015-0.1000061,0.5&#xA;&#x9;&#x9;c0,0.0999985-0.1000061,0.0999985-0.1999969,0.0999985h-1.3000031v2.5999985c0,0.2999992,0.1000061,0.5,0.1999969,0.7000008&#xA;&#x9;&#x9;s0.3000031,0.2000008,0.5,0.2000008c0.1000061,0,0.1999969,0,0.1999969,0s0.1000061,0,0.1999969,0&#xA;&#x9;&#x9;c0.1000061,0,0.1000061,0,0.1000061,0h0.1000061h0.1000061c0,0,0,0,0.1000061,0.0999985c0,0,0,0.0999985,0,0.2000008&#xA;&#x9;&#x9;C221.6000061,36.8999977,221.6000061,36.9999962,221.6000061,37.0999947z"/>
  </g>
  <g>
    <path class="st0" d="M172.5,30.8999958c0,0.1000004,0,0.2000008-0.1000061,0.2999992&#xA;&#x9;&#x9;c-0.1000061,0.1000004-0.1999969,0.2000008-0.3999939,0.2000008c-0.1999969,0.1000004-0.3999939,0.1000004-0.6999969,0.1000004&#xA;&#x9;&#x9;s-0.6999969,0-1.1999969,0s-0.8000031,0-1.1999969,0c-0.3000031,0-0.6000061-0.1000004-0.6999969-0.1000004&#xA;&#x9;&#x9;c-0.1999969-0.1000004-0.3000031-0.1000004-0.3999939-0.2000008c-0.1000061-0.1000004-0.1000061-0.2000008-0.1000061-0.2999992&#xA;&#x9;&#x9;v-19.5c0-0.1000004,0-0.1999998,0.1000061-0.3000002s0.1999969-0.1999998,0.3999939-0.1999998&#xA;&#x9;&#x9;c0.1999969-0.1000004,0.3999939-0.1000004,0.6999969-0.1000004s0.6999969,0,1.1000061,0c0.5,0,0.8999939,0,1.1999969,0&#xA;&#x9;&#x9;s0.5,0.1000004,0.6999969,0.1000004c0.1999969,0.1000004,0.3000031,0.1000004,0.3999939,0.1999998&#xA;&#x9;&#x9;c0.1000061,0.1000004,0.1000061,0.1999998,0.1000061,0.3000002v19.5H172.5z"/>
  </g>
  <g>
    <path class="st0" d="M193.1999969,12.5999956c0,0.3000002,0,0.6000004,0,0.8000002s-0.1000061,0.3999996-0.1000061,0.5&#xA;&#x9;&#x9;s-0.1000061,0.1999998-0.1999969,0.3000002c-0.1000061,0.1000004-0.1999969,0.1000004-0.3000031,0.1000004h-5.8999939v16.6000023&#xA;&#x9;&#x9;c0,0.1000004,0,0.2000008-0.1000061,0.2999992c-0.1000061,0.1000004-0.1999969,0.2000008-0.3999939,0.2000008&#xA;&#x9;&#x9;C186,31.4999981,185.8000031,31.4999981,185.5,31.4999981s-0.6999969,0-1.1999969,0s-0.8000031,0-1.1999969,0&#xA;&#x9;&#x9;S182.5,31.3999977,182.4000092,31.3999977c-0.1999969-0.1000004-0.3000031-0.1000004-0.3999939-0.2000008&#xA;&#x9;&#x9;c-0.1000061-0.1000004-0.1000061-0.2000008-0.1000061-0.2999992V14.2999954H176c-0.1000061,0-0.1999969,0-0.3000031-0.1000004&#xA;&#x9;&#x9;S175.5,13.9999952,175.5,13.8999949s-0.1000061-0.3000002-0.1000061-0.5s0-0.5,0-0.8000002s0-0.6000004,0-0.8000002&#xA;&#x9;&#x9;s0.1000061-0.3999996,0.1000061-0.5c0.1000061-0.1000004,0.1000061-0.1999998,0.1999969-0.3000002&#xA;&#x9;&#x9;c0.1000061-0.1000004,0.1999969-0.1000004,0.3000031-0.1000004h16.6000061c0.1000061,0,0.1999969,0,0.3000031,0.1000004&#xA;&#x9;&#x9;s0.1999969,0.1999998,0.1999969,0.3000002c0.1000061,0.1000004,0.1000061,0.3000002,0.1000061,0.5&#xA;&#x9;&#x9;C193.1999969,11.9999952,193.1999969,12.199995,193.1999969,12.5999956z"/>
  </g>
  <path class="st1" d="M163.1999969-0.0000043h30.3999939c2.8000031,0,5.1000061,2.3,5.1000061,5.0999999v30.4000015&#xA;&#x9;c0,2.7999992-2.3000031,5.0999985-5.1000061,5.0999985h-30.3999939c-2.8000031,0-5.1000061-2.2999992-5.1000061-5.0999985V5.0999956&#xA;&#x9;C158.1000061,2.2999957,160.3999939-0.0000043,163.1999969-0.0000043"/>
  <path class="st0" d="M138.3000031,10.7999954c0,0.1000004,0,0.3000002-0.1000061,0.5s-0.1000061,0.3999996-0.3000031,0.6999998&#xA;&#x9;l-10.5,24.7999992c-0.0999985,0.2000008-0.1999969,0.4000015-0.4000015,0.5&#xA;&#x9;c-0.1999969,0.0999985-0.4000015,0.2000008-0.6999969,0.2999992c-0.3000031,0.0999985-0.6999969,0.0999985-1.1999969,0.2000008&#xA;&#x9;c-0.5,0-1.1999969,0-2,0s-1.5,0-2.0999985-0.0999985c-0.5999985,0-1-0.0999985-1.3000031-0.2000008&#xA;&#x9;c-0.3000031-0.0999985-0.5999985-0.2000008-0.6999969-0.2999992c-0.1999969-0.0999985-0.3000031-0.2999992-0.4000015-0.5l-7.5-19&#xA;&#x9;L111,17.3999977l-0.0999985,0.2999992l-6.9000015,19c-0.0999985,0.2000008-0.1999969,0.4000015-0.4000015,0.5&#xA;&#x9;c-0.1999969,0.0999985-0.4000015,0.2000008-0.8000031,0.2999992s-0.8000031,0.0999985-1.3000031,0.2000008c-0.5,0-1.1999969,0-2,0&#xA;&#x9;s-1.5,0-2-0.0999985c-0.5,0-0.9000015-0.0999985-1.3000031-0.2000008c-0.3000031-0.0999985-0.5999985-0.2000008-0.6999969-0.2999992&#xA;&#x9;c-0.1999969-0.0999985-0.3000031-0.2999992-0.4000015-0.5L84.8000031,11.9999952&#xA;&#x9;c-0.0999985-0.3000002-0.1999969-0.5-0.3000031-0.6999998c-0.0999985-0.1999998-0.0999985-0.3999996-0.0999985-0.5&#xA;&#x9;c0-0.1999998,0.0999985-0.3000002,0.1999969-0.3999996c0.0999985-0.1000004,0.3000031-0.1999998,0.5-0.3000002&#xA;&#x9;s0.5999985-0.1000004,1-0.1000004s0.9000015,0,1.5999985,0s1.3000031,0,1.8000031,0s0.8000031,0.1000004,1,0.1000004&#xA;&#x9;c0.1999969,0.1000004,0.4000015,0.1999998,0.5,0.3000002s0.1999969,0.3000002,0.3000031,0.3999996l8.5999985,21.5L100,32.5999947&#xA;&#x9;l0.0999985-0.2999992l7.9000015-21.5c0-0.1999998,0.0999985-0.3000002,0.3000031-0.3999996&#xA;&#x9;c0.0999985-0.1000004,0.3000031-0.1999998,0.5-0.3000002s0.5999985-0.1000004,1-0.1000004s0.9000015,0,1.5999985,0&#xA;&#x9;c0.5999985,0,1.1999969,0,1.5999985,0s0.6999969,0.1000004,1,0.1000004c0.1999969,0.1000004,0.4000015,0.1999998,0.5,0.3000002&#xA;&#x9;s0.1999969,0.1999998,0.1999969,0.3999996l8.5,21.6000023l0.0999985,0.2999992v-0.2999992l8.4999924-21.5&#xA;&#x9;c0.1000061-0.1999998,0.1000061-0.3000002,0.3000031-0.3999996c0.1000061-0.1000004,0.3000031-0.1999998,0.6000061-0.3000002&#xA;&#x9;s0.6000061-0.1000004,1-0.1000004s1,0,1.6999969,0c0.6000061,0,1.1999969,0,1.5,0&#xA;&#x9;c0.3999939,0,0.6999969,0.1000004,0.8999939,0.1000004c0.1999969,0.1000004,0.3999939,0.1999998,0.5,0.3000002&#xA;&#x9;C138.3000031,10.4999952,138.3000031,10.699995,138.3000031,10.7999954 M81.8000031,36.9999962&#xA;&#x9;c0,0.0999985-0.0999985,0.2999992-0.1999969,0.4000015c-0.0999985,0.0999985-0.3000031,0.2000008-0.5,0.2999992&#xA;&#x9;s-0.5999985,0.0999985-1,0.2000008c-0.4000015,0-1,0.0999985-1.5999985,0.0999985s-1.1999969,0-1.5999985-0.0999985&#xA;&#x9;c-0.4000015,0-0.8000031-0.0999985-1-0.2000008c-0.3000031-0.0999985-0.4000015-0.2000008-0.5-0.2999992&#xA;&#x9;s-0.0999985-0.2000008-0.0999985-0.4000015V4.0999956c0-0.2,0.0999985-0.3,0.0999985-0.4000001&#xA;&#x9;c0.0999985-0.0999999,0.3000031-0.2,0.5-0.3s0.5999985-0.0999999,1-0.2c0.4000015,0,1-0.0999999,1.5999985-0.0999999&#xA;&#x9;c0.6999969,0,1.1999969,0,1.5999985,0.0999999c0.4000015,0,0.6999969,0.0999999,1,0.2c0.1999969,0.0999999,0.4000015,0.2,0.5,0.3&#xA;&#x9;s0.1999969,0.3,0.1999969,0.4000001V36.9999962z M63.4000015,23.9999962c0-1.3999996-0.2000008-2.7000008-0.5-4&#xA;&#x9;C62.5,18.6999969,62,17.5999966,61.1000023,16.6999969c-0.7999992-1.000001-1.9000015-1.7000008-3.2999992-2.2000008&#xA;&#x9;c-1.4000015-0.6000004-3.2000008-0.8000002-5.2000008-0.8000002c-1.9000015,0-3.5999985,0.3000002-5,0.8000002&#xA;&#x9;s-2.5,1.1999998-3.4000015,2.1000004c-0.9000015,0.8999996-1.5999985,2-2,3.2999992s-0.5999985,2.6000004-0.5999985,4.1000004&#xA;&#x9;c0,1.3999996,0.2000008,2.7999992,0.5,4c0.4000015,1.2999992,0.9000015,2.3999996,1.7999992,3.2999992&#xA;&#x9;c0.7999992,0.9000015,1.9000015,1.7000008,3.2999992,2.2000008c1.4000015,0.5999985,3.2000008,0.7999992,5.2000008,0.7999992&#xA;&#x9;c1.9000015,0,3.5999985-0.2000008,5-0.7999992c1.4000015-0.5,2.5999985-1.2000008,3.5-2.1000004s1.5999985-2,2-3.2000008&#xA;&#x9;C63.0999985,26.8999958,63.4000015,25.4999962,63.4000015,23.9999962z M70.1999969,23.6999969&#xA;&#x9;c0,2.1000004-0.4000015,4.1000004-1.1999969,5.8999996c-0.8000031,1.7999992-1.9000015,3.3000011-3.4000015,4.6000004&#xA;&#x9;s-3.4000015,2.2999992-5.7000008,3s-4.9000015,1.0999985-7.9000015,1.0999985c-2.9000015,0-5.5-0.2999992-7.7000008-1&#xA;&#x9;c-2.2000008-0.5999985-4-1.5999985-5.5-2.7999992c-1.4000015-1.2000008-2.5-2.7000008-3.2000008-4.3999996&#xA;&#x9;c-0.7000008-1.7000008-1.0999985-3.7000008-1.0999985-5.8999996c0-2.1000004,0.4000015-4.1000004,1.0999985-5.8999996&#xA;&#x9;c0.7999992-1.7999992,1.9000015-3.3000011,3.4000015-4.6000013s3.4000015-2.3000002,5.7000008-3s4.9000015-1.1000004,8-1.1000004&#xA;&#x9;c2.9000015,0,5.5,0.3000002,7.7000008,1c2.2000008,0.6000004,3.9999962,1.6000004,5.4999962,2.8000002&#xA;&#x9;s2.5,2.7000008,3.3000031,4.4000015C69.9000015,19.4999962,70.1999969,21.4999962,70.1999969,23.6999969z"/>
  <path class="st0" d="M154.1999969,4.0999956c0,0.5999999,0,1.0999999-0.1000061,1.7000003&#xA;&#x9;c-0.1000061,0.5-0.1999969,1-0.3999939,1.4000001S153.3000031,8.0999956,153,8.4999952s-0.6999969,0.8999996-1.1000061,1.3999996&#xA;&#x9;l-5.3999939,6c-0.1000061,0.1000004-0.3000031,0.2000017-0.5,0.3000002&#xA;&#x9;c-0.1999969,0.1000004-0.3999939,0.2000008-0.6000061,0.2999992c-0.1999969,0.1000004-0.5,0.1000004-0.8999939,0.2000008&#xA;&#x9;c-0.3000031,0-0.6999969,0-1.3000031,0c-0.3999939,0-0.8000031,0-1.1000061,0s-0.5-0.1000004-0.6000061-0.1000004&#xA;&#x9;c-0.1000061-0.1000004-0.1999969-0.2000008-0.1999969-0.2999992c0-0.1000004,0-0.3000011,0.1000061-0.4000006l5.3000031-7.9999995&#xA;&#x9;V4.0999956c0-0.5,0.1000061-0.9000001,0.1999969-1.2c0.1000061-0.3,0.3999939-0.5,0.6999969-0.7s0.6999969-0.3,1.1999969-0.3&#xA;&#x9;c0.5-0.1,1.1000061-0.1,1.6999969-0.1c0.6000061,0,1.1999969,0,1.6999969,0.1c0.5,0,0.8999939,0.2,1.1999969,0.3&#xA;&#x9;s0.5,0.4000001,0.6999969,0.7C154.1999969,3.0999956,154.1999969,3.5999956,154.1999969,4.0999956"/>
  <path class="st0" d="M31.6000004,27.8999958c0,1.6000004-0.3999996,3-1.2999992,4.3000011&#xA;&#x9;c-0.8999996,1.2999992-2.1000004,2.2999992-3.7000008,3.2000008s-3.3999996,1.5-5.5,2&#xA;&#x9;C19,37.7999992,16.7000008,38.0999985,14.2000008,38.0999985c-1.6999998,0-3.3000002-0.0999985-4.8000002-0.2999992&#xA;&#x9;s-2.8000002-0.4000015-3.9000001-0.7000008C4.3000002,36.7999992,3.4000006,36.5,2.6000004,36.1999969&#xA;&#x9;c-0.8-0.2999992-1.3-0.5999985-1.6-0.7999992s-0.5-0.5-0.7-0.7999992C0.1,34.1999969,0,33.7999954,0,33.2999954&#xA;&#x9;c0-0.4000015,0-0.7000008,0.1-1s0.1-0.5,0.2-0.6000004c0.1-0.2000008,0.2-0.2999992,0.4-0.2999992&#xA;&#x9;c0.1-0.1000004,0.3-0.1000004,0.6-0.1000004c0.4,0,0.9,0.1000004,1.6,0.3999996s1.5,0.6000004,2.5999999,0.9999981&#xA;&#x9;c1.0999999,0.4000015,2.3000002,0.7000008,3.8000002,1s3.1999998,0.5,5.1999998,0.5c1.5,0,2.7999992-0.0999985,4.1000004-0.4000015&#xA;&#x9;c1.2000008-0.2999992,2.2999992-0.5999985,3.2000008-1.0999985c0.8999996-0.5,1.6000004-1.1000004,2-1.7999992&#xA;&#x9;c0.5-0.7000008,0.7000008-1.5,0.7000008-2.3999996c0-1-0.2999992-1.7999992-1-2.5&#xA;&#x9;c-0.6000004-0.7000008-1.5-1.2999992-2.6000004-1.7999992s-2.2999992-1-3.7000008-1.3999996&#xA;&#x9;c-1.3999996-0.3999996-2.8000002-0.8999996-4.3000002-1.2999992c-1.3999996-0.3999996-2.9000006-0.8999996-4.1999998-1.5&#xA;&#x9;c-1.4000001-0.6000004-2.5999999-1.2000008-3.6999998-1.8999996c-1.0999999-0.7000008-2-1.6000004-2.5999999-2.6000013&#xA;&#x9;c-0.7-1-1-2.1999998-1-3.6000004s0.4-2.6999998,1.2-3.8000002s1.8999999-2.0999994,3.2-2.7999997c1.4000001-0.8000002,3-1.3,5-1.7&#xA;&#x9;c1.8999996-0.4000001,4-0.6000001,6.1999989-0.6000001c1.1000004,0,2.2999992,0.0999999,3.3999996,0.2&#xA;&#x9;c1.2000008,0.0999999,2.2000008,0.3,3.2000008,0.5s1.8999996,0.4999998,2.7000008,0.7&#xA;&#x9;c0.7999992,0.3000002,1.2999992,0.5,1.6000004,0.6999998c0.2999992,0.1999998,0.3999996,0.3000002,0.5,0.4000001&#xA;&#x9;s0.1000004,0.1999998,0.2000008,0.4000001c0.1000004,0.1999998,0.1000004,0.3000002,0.1000004,0.5s0,0.5,0,0.8000002&#xA;&#x9;s0,0.5999999-0.1000004,0.8000002c0,0.1999998-0.1000004,0.5-0.2000008,0.5999994&#xA;&#x9;c-0.1000004,0.1999998-0.2000008,0.3000002-0.2999992,0.3999996c-0.2000027-0.0999994-0.3000031,0.000001-0.5000019,0.000001&#xA;&#x9;c-0.2999992,0-0.7000008-0.1000004-1.3999996-0.3999996c-0.6000004-0.3000002-1.3999996-0.5-2.2999992-0.7999997&#xA;&#x9;c-0.8999996-0.3000002-2-0.5999999-3.2000008-0.8000002C19.5,6.6999955,18.1000004,6.5999956,16.6000004,6.5999956&#xA;&#x9;c-1.3999996,0-2.6999998,0.0999999-3.6999998,0.4000001c-1.1000004,0.3000002-1.8999996,0.5999999-2.5999994,1&#xA;&#x9;C9.6000004,8.3999949,9.1000004,8.8999949,8.6999998,9.4999952c-0.3999996,0.6000004-0.5,1.1999998-0.5,1.8999996&#xA;&#x9;c0,0.8999996,0.3000002,1.8000002,1,2.5s1.5,1.3000002,2.5999994,1.8000002&#xA;&#x9;c1.1000004,0.5000019,2.3000002,1.0000019,3.6999998,1.5000019c1.4000006,0.3999996,2.8000002,0.8999996,4.3000002,1.2999992&#xA;&#x9;c1.3999996,0.5,2.8999996,0.8999996,4.2999992,1.5c1.3999996,0.5,2.7000008,1.2000008,3.7000008,1.8999996&#xA;&#x9;c1.1000004,0.7000008,2,1.6000004,2.7000008,2.6000004C31.2000008,25.3999958,31.6000004,26.5999966,31.6000004,27.8999958"/>
</svg>