<?xml version="1.0" encoding="UTF-8" standalone="no"?>
<svg
   width="500.00412"
   zoomAndPan="magnify"
   viewBox="0 0 375.00309 185.30384"
   height="247.07179"
   preserveAspectRatio="xMidYMid"
   version="1.0"
   id="svg154"
   sodipodi:docname="logo1.svg"
   xmlns:inkscape="http://www.inkscape.org/namespaces/inkscape"
   xmlns:sodipodi="http://sodipodi.sourceforge.net/DTD/sodipodi-0.dtd"
   xmlns="http://www.w3.org/2000/svg"
   xmlns:svg="http://www.w3.org/2000/svg">
  <sodipodi:namedview
     id="namedview156"
     pagecolor="#ffffff"
     bordercolor="#000000"
     borderopacity="0.25"
     inkscape:showpageshadow="2"
     inkscape:pageopacity="0.0"
     inkscape:pagecheckerboard="0"
     inkscape:deskcolor="#d1d1d1"
     showgrid="false"
     inkscape:zoom="0.6194949"
     inkscape:cx="452.78823"
     inkscape:cy="306.70148"
     inkscape:window-width="1920"
     inkscape:window-height="1009"
     inkscape:window-x="1912"
     inkscape:window-y="-8"
     inkscape:window-maximized="1"
     inkscape:current-layer="svg154" />
  <defs
     id="defs4" />
  <g
     fill="#000000"
     fill-opacity="1"
     id="g16"
     inkscape:export-filename="logo-white.svg"
     inkscape:export-xdpi="96"
     inkscape:export-ydpi="96"
     transform="translate(0.00312212,-95.680471)"
     style="fill:#ffffff">
    <g
       transform="translate(15.839468,213.70667)"
       id="g14"
       style="fill:#ffffff">
      <g
         id="g12"
         style="fill:#ffffff">
        <path
           d="m 155.73437,14.515625 c 0.0508,0.01953 0.0859,0.08203 0.10938,0.1875 0.0195,0.101563 0.0312,0.1875 0.0312,0.25 -0.043,0.09375 -0.0937,0.171875 -0.15625,0.234375 -0.0547,0.0625 -0.11719,0.113281 -0.1875,0.15625 -0.29297,0.113281 -0.57422,0.15625 -0.84375,0.125 -0.29297,0 -0.57031,-0.01563 -0.82813,-0.04687 -0.13671,-0.02344 -0.24609,-0.03125 -0.32812,-0.03125 -1.35547,-0.136719 -2.70313,-0.28125 -4.04688,-0.4375 -3.13671,-0.324219 -6.25781,-0.632813 -9.35937,-0.921875 C 134.10151,13.488286 128.07807,12.992193 122.04683,12.54688 113.58594,11.960938 105.11719,11.507812 96.640625,11.1875 90.554688,10.96875 84.476562,10.8125 78.40625,10.71875 77.726562,10.6875 77.050781,10.67188 76.375,10.67188 c -0.699219,0 -1.386719,-0.01563 -2.0625,-0.04687 -4.125,-0.105469 -8.257812,-0.15625 -12.390625,-0.15625 h -0.07813 c -2.4375,0 -4.855469,0.05078 -7.25,0.15625 -0.90625,0.03125 -1.789062,0.04687 -2.640625,0.04687 -1.09375,0.03125 -2.199219,0.238281 -3.3125,0.625 -8.398437,2.9375 -16.882813,5.097656 -25.453125,6.484375 -2.46875,0.40625 -4.933594,0.742188 -7.390625,1.015625 -2.460932,0.28125 -4.92187,0.421875 -7.39062,0.421875 -0.804688,0 -1.605469,-0.01172 -2.40625,-0.03125 -1.210938,0 -2.371094,-0.164062 -3.484375,-0.484375 C 2.054688,18.597661 1.632812,18.45313 1.25,18.26563 0.894531,18.128911 0.597656,17.941411 0.359375,17.70313 c -0.242187,-0.242187 -0.34375,-0.570313 -0.3125,-0.984375 0.070313,-0.40625 0.25,-0.757812 0.53125,-1.046875 0.28125,-0.292969 0.601563,-0.53125 0.96875,-0.71875 1.125,-0.648437 2.300781,-1.078125 3.53125,-1.296875 0.613281,-0.15625 1.238281,-0.304688 1.875,-0.4375 2.082031,-0.480469 4.179687,-0.882812 6.296875,-1.203125 8.445312,-1.25 16.867188,-2.0625 25.265625,-2.4375 C 39.023438,9.535156 39.519531,9.5 40,9.46875 42.582031,9.34375 45.171875,9.234375 47.765625,9.140625 48.691406,9.109375 49.625,8.9375 50.5625,8.625 c 3.195312,-1.199219 6.347656,-2.53125 9.453125,-4 3.101563,-1.46875 6.140625,-3.136719 9.109375,-5 2.46875,-1.5 4.742188,-3.269531 6.828125,-5.3125 1.175781,-1.125 2.132813,-2.390625 2.875,-3.796875 0.988281,-2.050781 0.8125,-3.828125 -0.53125,-5.328125 -0.96875,-0.988281 -2.105469,-1.757812 -3.40625,-2.3125 -1.730469,-0.800781 -3.53125,-1.441406 -5.40625,-1.921875 -1.867187,-0.476563 -3.761719,-0.894531 -5.6875,-1.25 -5.4375,-0.882813 -10.984375,-1.425781 -16.640625,-1.625 -0.210938,0 -0.40625,0 -0.59375,0 -0.21875,0 -0.445312,0 -0.671875,0 -0.480469,0.07422 -0.84375,0.359375 -1.09375,0.859375 -0.136719,0.21875 -0.25,0.433594 -0.34375,0.640625 -0.25,0.480469 -0.507813,0.960937 -0.765625,1.4375 -2.011719,4.0625 -4.011719,8.109375 -6,12.140625 -1.65625,3.429688 -3.339844,6.8359375 -5.046875,10.21875 -0.03125,0.132812 -0.07422,0.242188 -0.125,0.328125 -0.210937,0.425781 -0.4375,0.828125 -0.6875,1.203125 -0.28125,0.320312 -0.617187,0.453125 -1,0.390625 C 30.597656,5.328125 30.375,5.316406 30.15625,5.265625 29.757812,5.054688 29.628906,4.75 29.765625,4.34375 c 0.34375,-0.90625 0.726563,-1.789062 1.15625,-2.640625 2.53125,-5.382813 5.0625,-10.742187 7.59375,-16.078125 0.820313,-1.707031 1.632813,-3.40625 2.4375,-5.09375 0.0625,-0.15625 0.128906,-0.300781 0.203125,-0.4375 0.1875,-0.382812 0.359375,-0.769531 0.515625,-1.15625 0.21875,-0.570312 0.04687,-0.875 -0.515625,-0.90625 -0.292969,-0.03125 -0.585938,-0.04687 -0.875,-0.04687 -0.375,-0.03125 -0.746094,-0.0625 -1.109375,-0.09375 -0.0625,0 -0.148437,0 -0.25,0 -0.4375,-0.03906 -0.851563,-0.113281 -1.234375,-0.21875 -0.386719,-0.113281 -0.617188,-0.410156 -0.6875,-0.890625 0,-0.539062 0.1875,-0.941406 0.5625,-1.203125 0.375,-0.257813 0.785156,-0.46875 1.234375,-0.625 0.15625,-0.0625 0.300781,-0.109375 0.4375,-0.140625 1.207031,-0.5 2.4375,-0.945312 3.6875,-1.34375 0.125,-0.0625 0.269531,-0.109375 0.4375,-0.140625 0.957031,-0.28125 1.675781,-0.890625 2.15625,-1.828125 2.132813,-4.050781 4.28125,-8.101562 6.4375,-12.15625 0.726563,-1.394531 1.476563,-2.8125 2.25,-4.25 0.101563,-0.207031 0.195313,-0.40625 0.28125,-0.59375 0.1875,-0.40625 0.410156,-0.800781 0.671875,-1.1875 0.320312,-0.488281 0.738281,-0.679688 1.25,-0.578125 0.226562,-0.03125 0.453125,-0.01563 0.671875,0.04687 0.476563,0.21875 0.625,0.589844 0.4375,1.109375 0,0.03125 -0.01563,0.04687 -0.04687,0.04687 -0.367188,1.09375 -0.796875,2.152344 -1.296875,3.171875 -1.261719,2.460937 -2.542969,4.921875 -3.84375,7.390625 -0.40625,0.835938 -0.839844,1.664062 -1.296875,2.484375 -0.230469,0.429687 -0.453125,0.84375 -0.671875,1.25 -0.375,0.710937 -0.746094,1.429687 -1.109375,2.15625 0,0 -0.01563,0.02344 -0.04687,0.0625 -0.0625,0.117187 -0.109375,0.242187 -0.140625,0.375 -0.03125,0.125 0.03125,0.21875 0.1875,0.28125 0.101562,0.04297 0.203125,0.07813 0.296875,0.109375 l 0.09375,-0.04687 c 0.1875,-0.03906 0.398437,-0.09375 0.640625,-0.15625 0.05078,-0.01953 0.109375,-0.04687 0.171875,-0.07813 7.007813,-2.207031 14.007813,-4.5 21,-6.875 7,-2.375 13.957031,-4.921875 20.875,-7.640625 0.15625,-0.05078 0.296875,-0.09375 0.421875,-0.125 2.113281,-0.875 4.21875,-1.75 6.3125,-2.625 2.09375,-0.882813 4.16406,-1.835937 6.21875,-2.859375 1.53125,-0.738281 2.97266,-1.617188 4.32813,-2.640625 2.875,-2.332031 2.99218,-4.425781 0.35937,-6.28125 -1.23047,-0.84375 -2.57812,-1.484375 -4.04687,-1.921875 -1.46094,-0.445312 -2.95313,-0.765625 -4.48438,-0.953125 -3.648438,-0.550781 -7.339844,-0.828125 -11.078125,-0.828125 h -0.0625 c -3.617187,0.03125 -7.261719,0.203125 -10.9375,0.515625 -8.15625,0.71875 -16.304687,2.105469 -24.4375,4.15625 -7.492187,1.84375 -14.835937,4.367187 -22.03125,7.5625 -1.898437,0.835937 -3.742187,1.78125 -5.53125,2.84375 -0.511719,0.3125 -1.023437,0.605469 -1.53125,0.875 -0.28125,0.117187 -0.558594,0.140625 -0.828125,0.07813 -0.34375,0.0625 -0.625,-0.03125 -0.84375,-0.28125 C 24,-46.289062 23.988281,-46.5 24.125,-46.6875 c 0.144531,-0.195312 0.328125,-0.359375 0.546875,-0.484375 1.539063,-1.09375 3.144531,-2.003906 4.8125,-2.734375 0.01953,0 0.04687,-0.01563 0.07813,-0.04687 6.789062,-3.195313 13.738281,-5.753906 20.84375,-7.671875 10.238281,-2.820312 20.53125,-4.582031 30.875,-5.28125 3.195312,-0.226562 6.382812,-0.34375 9.5625,-0.34375 3.445312,-0.03125 6.863281,0.140625 10.250005,0.515625 3.19531,0.324219 6.23828,1.070313 9.125,2.234375 1.35156,0.5 2.51953,1.261719 3.5,2.28125 0.83203,0.90625 1.20313,1.902344 1.10938,2.984375 -0.0937,1.085937 -0.6211,2.15625 -1.57813,3.21875 -1.23047,1.21875 -2.58984,2.230469 -4.07812,3.03125 -1.82422,1.023437 -3.6836,1.949219 -5.57813,2.78125 -1.88672,0.824219 -3.789067,1.621094 -5.70313,2.390625 -0.0625,0.03125 -0.148437,0.07031 -0.25,0.109375 -6.6875,2.75 -13.433594,5.304687 -20.234375,7.65625 -6.804688,2.34375 -13.632812,4.605469 -20.484375,6.78125 -1.148437,0.386719 -2.292969,0.773437 -3.4375,1.15625 -1.605469,0.542969 -3.203125,1.070313 -4.796875,1.578125 -0.699219,0.15625 -1.261719,0.542969 -1.6875,1.15625 -0.34375,0.585938 -0.496094,1.039062 -0.453125,1.359375 0.03906,0.3125 0.40625,0.484375 1.09375,0.515625 1.8125,0.0625 3.628906,0.15625 5.453125,0.28125 0.125,0 0.238281,0 0.34375,0 3.445312,0.21875 6.847656,0.589844 10.203125,1.109375 3.363281,0.511719 6.644531,1.261719 9.84375,2.25 1.382813,0.449219 2.71875,0.960937 4,1.53125 0.851563,0.398437 1.664063,0.875 2.4375,1.4375 3.300781,2.5625 3.539063,5.789063 0.71875,9.671875 -0.929687,1.28125 -1.996094,2.445312 -3.203125,3.484375 -2.980469,2.5625 -6.179688,4.773437 -9.59375,6.640625 -2.960938,1.625 -5.960938,3.128906 -9,4.515625 C 58.5,7.535156 58.132812,7.695312 57.75,7.90625 57.5625,7.988281 57.351562,8.082031 57.125,8.1875 c 0.1875,0.289062 0.359375,0.460938 0.515625,0.515625 0.164063,0.0625 0.347656,0.078125 0.546875,0.046875 0,0 0.01563,0 0.04687,0 0.539063,0.03125 1.066406,0.046875 1.578125,0.046875 h 0.0625 c 0.34375,0 0.691406,-0.015625 1.046875,-0.046875 1.601563,0 3.203125,0 4.796875,0 9.5,0.03125 18.957031,0.238281 28.375,0.625 10.238285,0.351562 20.437505,0.984375 30.593755,1.890625 3.22656,0.269531 6.45702,0.550781 9.6875,0.84375 3.89453,0.320313 7.78515,0.65625 11.67187,1 2.26954,0.238281 4.52344,0.515625 6.76563,0.828125 0.53125,0.0625 1.08593,0.128906 1.67187,0.203125 0.40625,0.0625 0.82032,0.1875 1.25,0.375 z M 42.875,-23.84375 c 0.0625,-0.03125 0.125,-0.09375 0.1875,-0.1875 0.0625,-0.09375 0.109375,-0.171875 0.140625,-0.234375 0,-0.07031 -0.01563,-0.117187 -0.04687,-0.140625 C 43.125,-24.4375 43.070312,-24.488281 43,-24.5625 c 0,0 -0.01172,-0.01563 -0.03125,-0.04687 -0.355469,0.07422 -0.679688,0.246094 -0.96875,0.515625 -0.05469,0.07422 -0.07422,0.152344 -0.0625,0.234375 0.0078,0.08594 0.06641,0.125 0.171875,0.125 0.25,0 0.503906,-0.03516 0.765625,-0.109375 z m -2.40625,35.828125 c 0.0625,-0.05469 0.128906,-0.07813 0.203125,-0.07813 0.113281,-0.02344 0.234375,-0.07422 0.359375,-0.15625 0.132812,-0.08594 0.234375,-0.203125 0.296875,-0.359375 -0.0625,-0.136719 -0.121094,-0.214844 -0.171875,-0.234375 -0.04297,0 -0.07813,0 -0.109375,0 -7.742187,0.34375 -15.5,0.992188 -23.28125,1.953125 C 13.921875,13.566406 10.09375,14.289062 6.28125,15.28125 6.195312,15.32031 6.101562,15.35938 6,15.390625 c -0.667969,0.125 -1.273438,0.390625 -1.8125,0.796875 -0.125,0.101562 -0.210938,0.21875 -0.25,0.34375 -0.03125,0.125 0.03125,0.234375 0.1875,0.328125 0.320312,0.132813 0.664062,0.242187 1.03125,0.328125 1.226562,0.238281 2.484375,0.359375 3.765625,0.359375 1.09375,0 2.1875,-0.05469 3.28125,-0.15625 9.46875,-0.804687 18.890625,-2.605469 28.265625,-5.40625 z m 0,0"
           id="path10"
           style="fill:#ffffff" />
      </g>
    </g>
  </g>
  <g
     fill="#000000"
     fill-opacity="1"
     id="g24"
     transform="translate(0.00312212,-95.680471)"
     style="fill:#ffffff">
    <g
       transform="translate(102.43575,213.70667)"
       id="g22"
       style="fill:#ffffff">
      <g
         id="g20"
         style="fill:#ffffff">
        <path
           d="m 15.828125,-11.109375 c 0.34375,0.1875 0.367187,0.664063 0.07813,1.421875 -0.417969,0.554688 -0.871094,1.070312 -1.359375,1.546875 -0.480469,0.480469 -1,0.914063 -1.5625,1.296875 -0.04297,0 -0.0625,0.011719 -0.0625,0.03125 -0.386719,0.261719 -0.789063,0.492188 -1.203125,0.6875 -3.480469,1.25 -5.257812,0.515625 -5.328125,-2.203125 -1.40625,1.21875 -2.351563,1.964844 -2.828125,2.234375 -1.15625,0.6875 -2.402344,0.996094 -3.734375,0.921875 -0.988281,-0.0625 -1.660156,-0.363281 -2.015625,-0.90625 -0.363281,-0.539063 -0.332031,-1.28125 0.09375,-2.21875 0.636719,-1.46875 1.542969,-2.773437 2.71875,-3.921875 1.382812,-1.28125 2.921875,-2.304688 4.609375,-3.078125 0.90625,-0.445313 1.851563,-0.617187 2.84375,-0.515625 0.988281,0.05469 1.582031,0.609375 1.78125,1.671875 0.093745,0.324219 0.01562,0.609375 -0.23438,0.859375 -0.324219,0.28125 -0.695312,0.34375 -1.109375,0.1875 -0.03125,0 -0.074219,-0.0039 -0.125,-0.01563 -0.054687,-0.01953 -0.09375,-0.03906 -0.125,-0.0625 C 7.847656,-13.753906 7.421875,-14 6.984375,-13.90625 6.554688,-13.8125 6.101562,-13.617188 5.625,-13.328125 c -2.242188,1.304687 -3.90625,3.125 -5,5.46875 -0.054688,0.105469 -0.089844,0.21875 -0.109375,0.34375 -0.011719,0.125 0.023437,0.226563 0.109375,0.296875 0.269531,0.085938 0.5625,0.0625 0.875,-0.0625 0.320312,-0.125 0.644531,-0.304688 0.96875,-0.546875 0.320312,-0.238281 0.585938,-0.4375 0.796875,-0.59375 0.03125,-0.039063 0.046875,-0.0625 0.046875,-0.0625 1.0625,-0.882813 2.101562,-1.796875 3.125,-2.734375 0.445312,-0.476562 1.003906,-0.742188 1.671875,-0.796875 0.96875,0 1.367187,0.429687 1.203125,1.28125 -0.085938,0.324219 -0.179688,0.640625 -0.28125,0.953125 -0.375,1.386719 -0.390625,2.199219 -0.046875,2.4375 0.351563,0.242188 0.890625,0.242188 1.609375,0 0.71875,-0.238281 1.4375,-0.695312 2.15625,-1.375 0.71875,-0.675781 1.320312,-1.289062 1.8125,-1.84375 0.5,-0.5625 0.921875,-0.742188 1.265625,-0.546875 z m 0,0"
           id="path18"
           style="fill:#ffffff" />
      </g>
    </g>
  </g>
  <g
     fill="#000000"
     fill-opacity="1"
     id="g32"
     transform="translate(0.00312212,-95.680471)"
     style="fill:#ffffff">
    <g
       transform="translate(116.9012,213.70667)"
       id="g30"
       style="fill:#ffffff">
      <g
         id="g28"
         style="fill:#ffffff">
        <path
           d="m 10.46875,-13.390625 c -0.125,1 -0.601562,1.65625 -1.421875,1.96875 -0.8125,0.304687 -1.078125,-0.09766 -0.796875,-1.203125 0.289062,-1.113281 -0.203125,-1.394531 -1.484375,-0.84375 -1.28125,0.542969 -2.339844,1.230469 -3.171875,2.0625 -1.273438,1.304688 -2.402344,2.714844 -3.390625,4.234375 -0.1054688,0.125 -0.1875,0.234375 -0.25,0.328125 -0.289063,0.417969 -0.582031,0.8125 -0.875,1.1875 -0.1875,0.261719 -0.40625,0.429688 -0.65625,0.5 -0.257813,0.0625 -0.519531,0.074219 -0.78125,0.03125 -0.25,-0.03125 -0.4375,-0.125 -0.5625,-0.28125 -0.132813,-0.164062 -0.148437,-0.359375 -0.046875,-0.578125 0.15625,-0.382813 0.34375,-0.78125 0.5625,-1.1875 1.3125,-2.4375 2.644531,-4.875 4,-7.3125 0.03125,-0.03125 0.046875,-0.0625 0.046875,-0.09375 0.1875,-0.375 0.410156,-0.722656 0.671875,-1.046875 0.289062,-0.320312 0.625,-0.453125 1,-0.390625 0.382812,0.0625 0.640625,0.289063 0.765625,0.671875 0.164063,0.511719 0.304687,0.804688 0.421875,0.875 0.113281,0.0625 0.375,0.01172 0.78125,-0.15625 0.875,-0.3125 1.722656,-0.535156 2.546875,-0.671875 0.832031,-0.132813 1.515625,-0.101563 2.046875,0.09375 0.53125,0.199219 0.726562,0.804687 0.59375,1.8125 z m 0,0"
           id="path26"
           style="fill:#ffffff" />
      </g>
    </g>
  </g>
  <g
     fill="#000000"
     fill-opacity="1"
     id="g40"
     transform="translate(0.00312212,-95.680471)"
     style="fill:#ffffff">
    <g
       transform="translate(127.81027,213.70667)"
       id="g38"
       style="fill:#ffffff">
      <g
         id="g36"
         style="fill:#ffffff">
        <path
           d="m 13.640625,-10.546875 c -1.949219,2.304687 -3.859375,4 -5.734375,5.09375 -1.867188,1.09375 -3.867188,1.453125 -6,1.078125 -2.125,-0.375 -3,-1.800781 -2.625,-4.28125 0.261719,-1.257812 0.617188,-2.484375 1.0625,-3.671875 1.125,-2.78125 2.257812,-5.546875 3.40625,-8.296875 0.382812,-0.988281 0.785156,-1.984375 1.203125,-2.984375 0.101563,-0.21875 0.195313,-0.4375 0.28125,-0.65625 C 5.398438,-24.628906 5.5625,-25 5.71875,-25.375 c 0.226562,-0.644531 -0.027344,-0.976562 -0.765625,-1 -0.417969,0 -0.835937,0 -1.25,0 -0.1875,0 -0.398437,0 -0.625,0 -0.21875,0.02344 -0.445313,0.04687 -0.671875,0.07813 -0.386719,0.03125 -0.765625,0.04687 -1.140625,0.04687 -0.367187,0 -0.710937,-0.09375 -1.03125,-0.28125 -0.085937,-0.03125 -0.1523438,-0.08203 -0.203125,-0.15625 -0.0507812,-0.08203 -0.078125,-0.175781 -0.078125,-0.28125 0.03125,-0.0625 0.078125,-0.128906 0.140625,-0.203125 0.070312,-0.08203 0.15625,-0.140625 0.25,-0.171875 0.320312,-0.125 0.660156,-0.21875 1.015625,-0.28125 0.894531,-0.03906 1.785156,-0.07813 2.671875,-0.109375 0.351562,0 0.660156,0 0.921875,0 0.582031,0 1.015625,-0.01953 1.296875,-0.0625 0.28125,-0.03906 0.507812,-0.191406 0.6875,-0.453125 0.175781,-0.269531 0.378906,-0.671875 0.609375,-1.203125 0.132813,-0.289063 0.296875,-0.613281 0.484375,-0.96875 0.476562,-1.007813 0.957031,-2.046875 1.4375,-3.109375 0.21875,-0.476562 0.441406,-0.945312 0.671875,-1.40625 0.195313,-0.445312 0.5,-0.796875 0.90625,-1.046875 0.382813,-0.1875 0.722656,-0.171875 1.015625,0.04687 0.09375,0.0625 0.160156,0.164062 0.203125,0.296875 0.05078,0.125 0.07813,0.234375 0.07813,0.328125 0,0.574219 -0.148438,1.136719 -0.4375,1.6875 -0.05469,0.117188 -0.117188,0.257812 -0.1875,0.421875 -0.1875,0.523437 -0.390625,1.046875 -0.609375,1.578125 -0.429687,0.992188 -0.828125,2.007812 -1.203125,3.046875 -0.105469,0.1875 -0.109375,0.355469 -0.015625,0.5 0.09375,0.148437 0.238281,0.21875 0.4375,0.21875 1.03125,0.02344 2.039063,0.03125 3.03125,0.03125 0.507813,0 1.015625,0 1.515625,0 1.601562,0.03125 2.242188,0.261719 1.921875,0.6875 -0.21875,0.25 -0.460937,0.390625 -0.71875,0.421875 -0.25,0.03125 -0.507813,0.02734 -0.765625,-0.01563 -0.15625,0 -0.3125,0 -0.46875,0 -1.636719,0.105469 -3.25,0.171875 -4.84375,0.203125 -0.75,0 -1.246094,0.335938 -1.484375,1 -0.273437,0.648438 -0.527344,1.289062 -0.765625,1.921875 -0.367188,0.84375 -0.710938,1.667969 -1.03125,2.46875 -0.324219,0.75 -0.640625,1.511719 -0.953125,2.28125 -0.835937,1.960937 -1.636719,3.917969 -2.40625,5.875 -0.480474,1.28126 -0.85938,2.589854 -1.14063,3.921885 -0.605469,2.4375 0.335938,3.371094 2.828125,2.796875 2.4375,-0.582031 4.992187,-2.34375 7.671875,-5.28125 1.164062,-0.738281 1.472656,-0.40625 0.921875,1 z m 0,0"
           id="path34"
           style="fill:#ffffff" />
      </g>
    </g>
  </g>
  <g
     fill="#000000"
     fill-opacity="1"
     id="g48"
     transform="translate(0.00312212,-95.680471)"
     style="fill:#ffffff">
    <g
       transform="translate(140.20299,213.70667)"
       id="g46"
       style="fill:#ffffff">
      <g
         id="g44"
         style="fill:#ffffff">
        <path
           d="m 3.46875,-5.171875 h -0.0625 c -2.117188,-0.03125 -3.5039062,-0.5 -4.171875,-1.40625 -0.664063,-0.90625 -0.632813,-2.117187 0.09375,-3.640625 0.6054688,-1.144531 1.375,-2.144531 2.3125,-3 0.3125,-0.289062 0.632813,-0.523438 0.96875,-0.703125 0.34375,-0.175781 0.722656,-0.265625 1.140625,-0.265625 0.25,-0.03906 0.535156,0.0078 0.859375,0.140625 0.09375,0.02344 0.191406,0.05859 0.296875,0.109375 0.25,-0.05078 0.488281,-0.132812 0.71875,-0.25 0.0625,-0.03906 0.144531,-0.07813 0.25,-0.109375 0.476562,-0.1875 0.984375,-0.265625 1.515625,-0.234375 0.21875,0 0.445313,0 0.6875,0 0.851563,0.136719 1.5,0.5 1.9375,1.09375 0.4375,0.585938 0.585937,1.296875 0.453125,2.140625 -0.07422,0.5 -0.230469,0.980469 -0.46875,1.4375 -1.679688,2.992187 -3.8125,4.554687 -6.40625,4.6875 z m 3.453125,-7.8125 c -1.15625,-0.03906 -2.183594,0.292969 -3.078125,1 -0.886719,0.699219 -1.546875,1.507813 -1.984375,2.421875 -0.4375,0.917969 -0.558594,1.671875 -0.359375,2.265625 0.195312,0.585937 0.800781,0.746094 1.8125,0.484375 1.15625,-0.34375 2.171875,-0.992188 3.046875,-1.953125 0.882813,-0.96875 1.421875,-1.882813 1.609375,-2.75 0.195312,-0.863281 -0.152344,-1.351563 -1.046875,-1.46875 z m 0,0"
           id="path42"
           style="fill:#ffffff" />
      </g>
    </g>
  </g>
  <g
     fill="#000000"
     fill-opacity="1"
     id="g56"
     transform="translate(0.00312212,-95.680471)"
     style="fill:#ffffff">
    <g
       transform="translate(151.78844,213.70667)"
       id="g54"
       style="fill:#ffffff">
      <g
         id="g52"
         style="fill:#ffffff">
        <path
           d="m 10.5625,-11.0625 c -2.304688,0.855469 -3.960938,1.554688 -4.96875,2.09375 -0.75,0.367188 -1.183594,0.667969 -1.296875,0.90625 -0.105469,0.242188 -0.015625,0.679688 0.265625,1.3125 0,0.03125 0.019531,0.078125 0.0625,0.140625 0.320312,0.773437 0.507812,1.570313 0.5625,2.390625 0.101562,1.679688 -1.320312,2.855469 -4.265625,3.53125 -2.9375,0.6679688 -4.90625,0.6875 -5.90625,0.0625 -1,-0.632812 -1.304687,-1.429688 -0.921875,-2.390625 0.386719,-0.957031 1.386719,-1.929687 3,-2.921875 1.617188,-0.988281 2.695312,-1.703125 3.234375,-2.140625 C 0.878906,-8.515625 1.046875,-9 0.828125,-9.53125 0.753906,-9.71875 0.675781,-9.910156 0.59375,-10.109375 0.40625,-10.554688 0.207031,-11.019531 0,-11.5 c -0.375,-0.875 -0.535156,-1.734375 -0.484375,-2.578125 0.042969,-0.84375 0.351563,-1.550781 0.921875,-2.125 0.582031,-0.570313 1.476562,-0.878906 2.6875,-0.921875 0.675781,-0.03125 1.285156,0.05859 1.828125,0.265625 0.539063,0.210937 0.96875,0.601563 1.28125,1.171875 0.269531,0.398438 0.191406,0.75 -0.234375,1.0625 -0.273438,0.21875 -0.570312,0.25 -0.890625,0.09375 -0.210937,-0.08203 -0.40625,-0.207031 -0.59375,-0.375 0,-0.03906 0,-0.0625 0,-0.0625 C 4.429688,-15.03125 4.351562,-15.085938 4.28125,-15.140625 4.1875,-15.273438 4.09375,-15.378906 4,-15.453125 3.613281,-15.722656 3.226562,-15.800781 2.84375,-15.6875 c -0.386719,0.105469 -0.671875,0.398438 -0.859375,0.875 -0.125,0.375 -0.1875,0.761719 -0.1875,1.15625 0.019531,0.480469 0.125,0.945312 0.3125,1.390625 0.132813,0.28125 0.253906,0.539063 0.359375,0.765625 0.25,0.636719 0.453125,1.078125 0.609375,1.328125 0.15625,0.242187 0.347656,0.34375 0.578125,0.3125 0.226562,-0.039063 2.289062,-0.785156 6.1875,-2.234375 0.84375,-0.269531 1.082031,0.07422 0.71875,1.03125 z M 1.109375,-2.734375 C 2.128906,-3.078125 2.5625,-3.757812 2.40625,-4.78125 2.40625,-4.851562 2.390625,-4.929688 2.359375,-5.015625 2.296875,-5.566406 2.175781,-5.992188 2,-6.296875 1.832031,-6.597656 1.441406,-6.585938 0.828125,-6.265625 c -1.507813,0.867187 -2.90625,1.871094 -4.1875,3.015625 -0.082031,0.105469 -0.160156,0.199219 -0.234375,0.28125 0,0 -0.015625,0.023438 -0.046875,0.0625 -0.09375,0.117188 -0.109375,0.246094 -0.046875,0.390625 0.0625,0.148437 0.195312,0.21875 0.390625,0.21875 1.5,0.242187 2.96875,0.09375 4.40625,-0.4375 z m 0,0"
           id="path50"
           style="fill:#ffffff" />
      </g>
    </g>
  </g>
  <g
     fill="#000000"
     fill-opacity="1"
     id="g64"
     transform="translate(0.00312212,-95.680471)"
     style="fill:#ffffff">
    <g
       transform="translate(161.45389,213.70667)"
       id="g62"
       style="fill:#ffffff">
      <g
         id="g60"
         style="fill:#ffffff">
        <path
           d="m 3.25,-8.734375 c -0.542969,0.398437 -0.8125,0.679687 -0.8125,0.84375 0,0.15625 0.171875,0.25 0.515625,0.28125 0.351563,0.023437 0.742187,0.03125 1.171875,0.03125 0.132812,-0.019531 0.242188,-0.03125 0.328125,-0.03125 1.382813,0.023437 2.710937,0.210937 3.984375,0.5625 0.382812,0.136719 0.757812,0.320313 1.125,0.546875 0.019531,0.03125 0.03125,0.046875 0.03125,0.046875 0.0625,0.023437 0.109375,0.085937 0.140625,0.1875 0.039063,0.09375 0.039063,0.179687 0,0.25 0,0.054687 -0.042969,0.105469 -0.125,0.15625 -0.085937,0.054687 -0.152344,0.09375 -0.203125,0.125 C 9.144531,-5.679688 8.890625,-5.664062 8.640625,-5.6875 5.953125,-6.007812 3.257812,-6.15625 0.5625,-6.125 c -0.5117188,0 -1.03125,0 -1.5625,0 -0.164062,0 -0.347656,0.011719 -0.546875,0.03125 -0.375,0.054688 -0.722656,0.046875 -1.046875,-0.015625 -0.320312,-0.070313 -0.535156,-0.316406 -0.640625,-0.734375 -0.050781,-0.320312 0.039063,-0.554688 0.265625,-0.703125 0.21875,-0.144531 0.492188,-0.265625 0.8125,-0.359375 0.21875,-0.070312 0.421875,-0.164062 0.609375,-0.28125 2.28125,-1.28125 4.476563,-2.691406 6.59375,-4.234375 0.851563,-0.601563 1.597656,-1.304687 2.234375,-2.109375 0.195312,-0.25 0.238281,-0.476562 0.125,-0.6875 -0.105469,-0.207031 -0.320312,-0.328125 -0.640625,-0.359375 -0.992187,-0.101563 -1.949219,-0.02344 -2.875,0.234375 -0.03125,0 -0.046875,0 -0.046875,0 -0.667969,0.1875 -1.359375,0.367188 -2.078125,0.53125 -0.34375,0.05469 -0.652344,-0.05469 -0.921875,-0.328125 -0.085938,-0.164063 -0.078125,-0.335937 0.015625,-0.515625 0.09375,-0.175781 0.285156,-0.328125 0.578125,-0.453125 2.082031,-0.863281 4.257812,-1.164063 6.53125,-0.90625 0.53125,0.08594 1.035156,0.242187 1.515625,0.46875 0.9375,0.492187 1.164063,1.179687 0.6875,2.0625 -0.542969,0.960937 -1.292969,1.78125 -2.25,2.46875 -1.25,0.917969 -2.53125,1.824219 -3.84375,2.71875 -0.292969,0.1875 -0.570313,0.375 -0.828125,0.5625 z m 0,0"
           id="path58"
           style="fill:#ffffff" />
      </g>
    </g>
  </g>
  <g
     fill="#000000"
     fill-opacity="1"
     id="g78"
     transform="translate(0.00312212,-95.680471)"
     style="fill:#ffffff">
    <g
       transform="translate(188.83568,213.70667)"
       id="g76"
       style="fill:#ffffff">
      <g
         id="g74"
         style="fill:#ffffff">
        <path
           d="m 148.25,2.265625 c 0.082,0 0.17578,0 0.28125,0 0.21875,0 0.4375,0.023437 0.65625,0.078125 0.22656,0.050781 0.4375,0.171875 0.625,0.359375 0.0391,0.0625 0.082,0.128906 0.125,0.203125 0.0508,0.082031 0.0781,0.175781 0.0781,0.28125 -0.0312,0.050781 -0.0742,0.117188 -0.125,0.203125 -0.0547,0.082031 -0.10546,0.144531 -0.15625,0.1875 -0.26171,0.0625 -0.53125,0.078125 -0.8125,0.046875 -0.13671,0 -0.28125,0 -0.4375,0 -1.60546,-0.105469 -3.20312,-0.226562 -4.79687,-0.359375 -2.96094,-0.210937 -5.90625,-0.414063 -8.84375,-0.609375 -12.125,-0.773438 -24.10547,-1.1875 -35.9375,-1.25 C 87.082031,1.34375 75.085938,1.503906 62.921875,1.890625 61.648438,1.921875 60.375,2.003906 59.09375,2.140625 57.882812,2.222656 56.664062,2.28125 55.4375,2.3125 c -1.179688,0.039062 -2.101562,0.554688 -2.765625,1.546875 -3.011719,4 -6.277344,7.789063 -9.796875,11.375 -2.46875,2.53125 -5.046875,4.800781 -7.734375,6.8125 -2.6875,2.019531 -5.511719,3.617187 -8.46875,4.796875 -2.960937,1.1875 -6.046875,1.769531 -9.265625,1.75 C 14.195312,28.582031 10.847656,27.796875 7.359375,26.234375 5.722656,25.535156 4.28125,24.519531 3.03125,23.1875 1.007812,20.894531 0.785156,18.414062 2.359375,15.75 c 1.113281,-1.71875 2.550781,-3.136719 4.3125,-4.25 2.664063,-1.761719 5.769531,-3.257812 9.3125,-4.484375 3.550781,-1.21875 7.300781,-2.210937 11.25,-2.96875 C 31.191406,3.285156 35.070312,2.675781 38.875,2.21875 c 3.8125,-0.449219 7.289062,-0.78125 10.4375,-1 1.28125,-0.105469 2.269531,-0.664062 2.96875,-1.671875 2.59375,-3.757813 5.351562,-8.15625 8.28125,-13.1875 2.925781,-5.039063 5.742188,-10.34375 8.453125,-15.90625 2.707031,-5.570313 5.035156,-10.988281 6.984375,-16.25 1.945312,-5.269531 3.253906,-10.015625 3.921875,-14.234375 0.1875,-1.28125 0.144531,-2.5625 -0.125,-3.84375 -0.523437,-2.039062 -1.804687,-3.207031 -3.84375,-3.5 -0.292969,-0.03125 -0.570313,-0.04687 -0.828125,-0.04687 -0.617188,0 -1.21875,0.07813 -1.8125,0.234375 -2.636719,0.542969 -5.890625,1.742188 -9.765625,3.59375 -3.867187,1.855469 -7.921875,4.164062 -12.171875,6.921875 -4.25,2.75 -8.324219,5.765625 -12.21875,9.046875 -3.898438,3.28125 -7.1875,6.621094 -9.875,10.015625 -2.6875,3.386719 -4.398438,6.664063 -5.125,9.828125 -0.585938,2.71875 0.375,4.710938 2.875,5.96875 2.007812,0.886719 4.148438,1.277344 6.421875,1.171875 2.28125,-0.113281 4.460937,-0.382813 6.546875,-0.8125 1.28125,-0.269531 2.5625,-0.40625 3.84375,-0.40625 0.53125,0 1.050781,0.02734 1.5625,0.07813 0.132812,0 0.257812,0.04297 0.375,0.125 0.113281,0.08594 0.148438,0.21875 0.109375,0.40625 -0.0625,0.324219 -0.242187,0.496094 -0.53125,0.515625 -1.761719,0.167969 -3.53125,0.398437 -5.3125,0.6875 -2.1875,0.386719 -4.375,0.640625 -6.5625,0.765625 -2.1875,0.125 -4.355469,-0.09375 -6.5,-0.65625 -1.085937,-0.289062 -2.09375,-0.742188 -3.03125,-1.359375 -2.242187,-1.5 -3.148437,-3.578125 -2.71875,-6.234375 0.632813,-3.394531 2.359375,-6.914062 5.171875,-10.5625 2.820312,-3.65625 6.285156,-7.207031 10.390625,-10.65625 4.113281,-3.457031 8.445313,-6.625 13,-9.5 4.5625,-2.882812 8.90625,-5.257812 13.03125,-7.125 4.132813,-1.875 7.628906,-3.035156 10.484375,-3.484375 0.695312,-0.132813 1.394531,-0.1875 2.09375,-0.15625 1.226562,-0.03125 2.414062,0.132813 3.5625,0.484375 2.101562,0.667969 3.429688,2.089844 3.984375,4.265625 0.488281,2.34375 0.203125,5.542969 -0.859375,9.59375 -1.054688,4.042969 -2.605469,8.542969 -4.65625,13.5 -2.054688,4.960937 -4.335938,9.945313 -6.84375,14.953125 -2.511719,5.011719 -4.960938,9.621094 -7.34375,13.828125 -2.386719,4.199219 -4.445312,7.578125 -6.171875,10.140625 -0.480469,0.6875 -0.945313,1.382812 -1.390625,2.078125 -0.09375,0.1875 -0.09375,0.359375 0,0.515625 0.101562,0.164062 0.265625,0.25 0.484375,0.25 h 0.03125 c 0.582031,0 1.164063,-0.015625 1.75,-0.046875 C 59.640625,0.484375 61.332031,0.40625 63.03125,0.3125 66.613281,0.144531 70.203125,0.0078125 73.796875,-0.09375 98.660156,-0.8125 123.47656,-0.0234375 148.25,2.265625 Z M 47,6.453125 c 0.15625,-0.199219 0.332031,-0.40625 0.53125,-0.625 0.3125,-0.375 0.632812,-0.792969 0.96875,-1.25 0.34375,-0.449219 0.644531,-0.980469 0.90625,-1.59375 -0.292969,0 -0.5625,0 -0.8125,0 -0.105469,0 -0.210938,0 -0.3125,0 -0.117188,0 -0.25,0 -0.40625,0 C 46.84375,3.117188 45.800781,3.25 44.75,3.375 43.394531,3.539062 42.050781,3.703125 40.71875,3.859375 37.601562,4.148438 34,4.671875 29.90625,5.421875 c -4.09375,0.75 -8.109375,1.769531 -12.046875,3.0625 -3.9375,1.300781 -7.171875,2.925781 -9.703125,4.875 -0.855469,0.675781 -1.640625,1.445313 -2.359375,2.3125 -2.105469,2.65625 -1.890625,5.101563 0.640625,7.34375 2.90625,2.363281 5.90625,3.65625 9,3.875 3.09375,0.226563 6.164062,-0.3125 9.21875,-1.625 3.050781,-1.3125 5.96875,-3.070313 8.75,-5.265625 2.789062,-2.1875 5.347656,-4.492188 7.671875,-6.90625 C 43.398438,10.675781 45.375,8.460938 47,6.453125 Z m 0,0"
           id="path72"
           style="fill:#ffffff" />
      </g>
    </g>
  </g>
  <g
     fill="#000000"
     fill-opacity="1"
     id="g86"
     transform="translate(0.00312212,-95.680471)"
     style="fill:#ffffff">
    <g
       transform="translate(260.59562,213.70667)"
       id="g84"
       style="fill:#ffffff">
      <g
         id="g82"
         style="fill:#ffffff">
        <path
           d="m 15.828125,-11.109375 c 0.34375,0.1875 0.367187,0.664063 0.07813,1.421875 -0.417969,0.554688 -0.871094,1.070312 -1.359375,1.546875 -0.480469,0.480469 -1,0.914063 -1.5625,1.296875 -0.04297,0 -0.0625,0.011719 -0.0625,0.03125 -0.386719,0.261719 -0.789063,0.492188 -1.203125,0.6875 -3.480469,1.25 -5.257812,0.515625 -5.328125,-2.203125 -1.40625,1.21875 -2.351563,1.964844 -2.828125,2.234375 -1.15625,0.6875 -2.402344,0.996094 -3.734375,0.921875 -0.988281,-0.0625 -1.660156,-0.363281 -2.015625,-0.90625 -0.363281,-0.539063 -0.332031,-1.28125 0.09375,-2.21875 0.636719,-1.46875 1.542969,-2.773437 2.71875,-3.921875 1.382812,-1.28125 2.921875,-2.304688 4.609375,-3.078125 0.90625,-0.445313 1.851563,-0.617187 2.84375,-0.515625 0.988281,0.05469 1.582031,0.609375 1.78125,1.671875 0.093745,0.324219 0.01562,0.609375 -0.23438,0.859375 -0.324219,0.28125 -0.695312,0.34375 -1.109375,0.1875 -0.03125,0 -0.074219,-0.0039 -0.125,-0.01563 -0.054687,-0.01953 -0.09375,-0.03906 -0.125,-0.0625 C 7.847656,-13.753906 7.421875,-14 6.984375,-13.90625 6.554688,-13.8125 6.101562,-13.617188 5.625,-13.328125 c -2.242188,1.304687 -3.90625,3.125 -5,5.46875 -0.054688,0.105469 -0.089844,0.21875 -0.109375,0.34375 -0.011719,0.125 0.023437,0.226563 0.109375,0.296875 0.269531,0.085938 0.5625,0.0625 0.875,-0.0625 0.320312,-0.125 0.644531,-0.304688 0.96875,-0.546875 0.320312,-0.238281 0.585938,-0.4375 0.796875,-0.59375 0.03125,-0.039063 0.046875,-0.0625 0.046875,-0.0625 1.0625,-0.882813 2.101562,-1.796875 3.125,-2.734375 0.445312,-0.476562 1.003906,-0.742188 1.671875,-0.796875 0.96875,0 1.367187,0.429687 1.203125,1.28125 -0.085938,0.324219 -0.179688,0.640625 -0.28125,0.953125 -0.375,1.386719 -0.390625,2.199219 -0.046875,2.4375 0.351563,0.242188 0.890625,0.242188 1.609375,0 0.71875,-0.238281 1.4375,-0.695312 2.15625,-1.375 0.71875,-0.675781 1.320312,-1.289062 1.8125,-1.84375 0.5,-0.5625 0.921875,-0.742188 1.265625,-0.546875 z m 0,0"
           id="path80"
           style="fill:#ffffff" />
      </g>
    </g>
  </g>
  <g
     fill="#000000"
     fill-opacity="1"
     id="g94"
     transform="translate(0.00312212,-95.680471)"
     style="fill:#ffffff">
    <g
       transform="translate(275.06106,213.70667)"
       id="g92"
       style="fill:#ffffff">
      <g
         id="g90"
         style="fill:#ffffff">
        <path
           d="m 11.171875,-34.65625 c 0.07031,-0.113281 0.226563,-0.207031 0.46875,-0.28125 0.238281,-0.08203 0.484375,-0.140625 0.734375,-0.171875 0.257812,-0.03906 0.484375,-0.03516 0.671875,0.01563 0.1875,0.05469 0.265625,0.140625 0.234375,0.265625 -0.15625,0.667969 -0.398438,1.324219 -0.71875,1.96875 -0.02344,0.08594 -0.07031,0.195313 -0.140625,0.328125 -1.210937,2.792969 -2.4375,5.5625 -3.6875,8.3125 -0.199219,0.40625 -0.375,0.808594 -0.53125,1.203125 -0.449219,0.929687 -1.007813,2.0625 -1.671875,3.40625 -0.75,1.40625 -1.390625,2.699219 -1.921875,3.875 0.507813,-0.613281 1.148437,-1.0625 1.921875,-1.34375 C 7.300781,-17.359375 7.890625,-17.5 8.296875,-17.5 c 1.539063,0.03125 2.390625,0.796875 2.546875,2.296875 0.25,1.699219 -0.05859,3.429687 -0.921875,5.1875 C 9.066406,-8.253906 7.9375,-6.8125 6.53125,-5.6875 5.332031,-5.019531 4.195312,-4.726562 3.125,-4.8125 2.0625,-4.894531 1.113281,-5.414062 0.28125,-6.375 c -0.105469,0 -0.2109375,0.046875 -0.3125,0.140625 -0.113281,0.09375 -0.234375,0.210937 -0.359375,0.34375 -0.15625,0.1875 -0.332031,0.335937 -0.53125,0.4375 -0.125,0.054687 -0.257813,0.070313 -0.40625,0.046875 C -1.472656,-5.4375 -1.59375,-5.484375 -1.6875,-5.546875 -2,-5.804688 -2.097656,-6.125 -1.984375,-6.5 c 1.21875,-3.195312 2.648437,-6.523438 4.296875,-9.984375 1.65625,-3.46875 3.3125,-6.847656 4.96875,-10.140625 0.695312,-1.46875 1.390625,-2.890625 2.078125,-4.265625 0.28125,-0.539063 0.550781,-1.101563 0.8125,-1.6875 0.3125,-0.664063 0.644531,-1.359375 1,-2.078125 z M 5.6875,-14.859375 c -1.117188,0.804687 -2.078125,1.777344 -2.890625,2.921875 -0.8125,1.148438 -1.105469,2.359375 -0.875,3.640625 0.113281,0.75 0.410156,1.277344 0.890625,1.578125 0.476562,0.304688 1.039062,0.195312 1.6875,-0.328125 0.632812,-0.59375 1.269531,-1.335937 1.90625,-2.234375 0.644531,-0.90625 1.164062,-1.867188 1.5625,-2.890625 0.3125,-0.90625 0.5,-1.691406 0.5625,-2.359375 C 8.601562,-15.195312 8.425781,-15.601562 8,-15.75 c -0.417969,-0.144531 -1.1875,0.152344 -2.3125,0.890625 z m 0,0"
           id="path88"
           style="fill:#ffffff" />
      </g>
    </g>
  </g>
  <g
     fill="#000000"
     fill-opacity="1"
     id="g102"
     transform="translate(0.00312212,-95.680471)"
     style="fill:#ffffff">
    <g
       transform="translate(287.14833,213.70667)"
       id="g100"
       style="fill:#ffffff">
      <g
         id="g98"
         style="fill:#ffffff">
        <path
           d="m 5.375,-17.171875 c -2.117188,5.46875 -3.105469,8.589844 -2.96875,9.359375 0.21875,1.4375 1.132812,1.796875 2.75,1.078125 1.625,-0.71875 2.875,-1.453125 3.75,-2.203125 0.882812,-0.75 1.4375,-1.238281 1.65625,-1.46875 0.476562,-0.476562 0.875,-0.742188 1.1875,-0.796875 0.320312,-0.0625 0.53125,-0.01563 0.625,0.140625 0.101562,0.15625 0.04687,0.375 -0.171875,0.65625 -1.28125,1.542969 -2.71875,2.875 -4.3125,4 C 6.304688,-5.289062 4.675781,-4.644531 3,-4.46875 c -1.679688,0.167969 -2.695312,-0.75 -3.046875,-2.75 -0.1875,-1.570312 0.53125,-4.453125 2.15625,-8.640625 -1.03125,0.375 -2.0859375,0.742187 -3.15625,1.09375 -0.6875,0.230469 -1.335937,0.414063 -1.953125,0.546875 -0.613281,0.136719 -1.148438,0.179688 -1.609375,0.125 -0.15625,-0.375 0.152344,-0.75 0.921875,-1.125 0.761719,-0.375 2.085938,-0.988281 3.96875,-1.84375 0.988281,-0.425781 1.921875,-0.828125 2.796875,-1.203125 l 0.515625,-1.15625 c 2.664062,-6.101563 4.773438,-11.113281 6.328125,-15.03125 0.132813,-0.351563 0.332031,-0.660156 0.59375,-0.921875 0.351563,-0.34375 0.769531,-0.421875 1.25,-0.234375 0.15625,0.07422 0.3125,0.195313 0.46875,0.359375 0.164063,0.15625 0.21875,0.4375 0.15625,0.84375 -2.5,5.917969 -4.539063,10.859375 -6.109375,14.828125 3.59375,-1.4375 5.515625,-2.023437 5.765625,-1.765625 0.07031,0.0625 0.132813,0.148438 0.1875,0.25 0,0.02344 0.01563,0.04687 0.04687,0.07813 0.03125,0.1875 -0.02734,0.398437 -0.171875,0.625 -0.136719,0.230469 -0.492187,0.476563 -1.0625,0.734375 -0.480469,0.21875 -0.976563,0.445312 -1.484375,0.671875 -1.386719,0.59375 -2.78125,1.199219 -4.1875,1.8125 z m 0,0"
           id="path96"
           style="fill:#ffffff" />
      </g>
    </g>
  </g>
  <g
     fill="#000000"
     fill-opacity="1"
     id="g110"
     transform="translate(0.00312212,-95.680471)"
     style="fill:#ffffff">
    <g
       transform="translate(298.0356,213.70667)"
       id="g108"
       style="fill:#ffffff">
      <g
         id="g106"
         style="fill:#ffffff">
        <path
           d="m 3.46875,-5.171875 h -0.0625 c -2.117188,-0.03125 -3.5039062,-0.5 -4.171875,-1.40625 -0.664063,-0.90625 -0.632813,-2.117187 0.09375,-3.640625 0.6054688,-1.144531 1.375,-2.144531 2.3125,-3 0.3125,-0.289062 0.632813,-0.523438 0.96875,-0.703125 0.34375,-0.175781 0.722656,-0.265625 1.140625,-0.265625 0.25,-0.03906 0.535156,0.0078 0.859375,0.140625 0.09375,0.02344 0.191406,0.05859 0.296875,0.109375 0.25,-0.05078 0.488281,-0.132812 0.71875,-0.25 0.0625,-0.03906 0.144531,-0.07813 0.25,-0.109375 0.476562,-0.1875 0.984375,-0.265625 1.515625,-0.234375 0.21875,0 0.445313,0 0.6875,0 0.851563,0.136719 1.5,0.5 1.9375,1.09375 0.4375,0.585938 0.585937,1.296875 0.453125,2.140625 -0.07422,0.5 -0.230469,0.980469 -0.46875,1.4375 -1.679688,2.992187 -3.8125,4.554687 -6.40625,4.6875 z m 3.453125,-7.8125 c -1.15625,-0.03906 -2.183594,0.292969 -3.078125,1 -0.886719,0.699219 -1.546875,1.507813 -1.984375,2.421875 -0.4375,0.917969 -0.558594,1.671875 -0.359375,2.265625 0.195312,0.585937 0.800781,0.746094 1.8125,0.484375 1.15625,-0.34375 2.171875,-0.992188 3.046875,-1.953125 0.882813,-0.96875 1.421875,-1.882813 1.609375,-2.75 0.195312,-0.863281 -0.152344,-1.351563 -1.046875,-1.46875 z m 0,0"
           id="path104"
           style="fill:#ffffff" />
      </g>
    </g>
  </g>
  <g
     fill="#000000"
     fill-opacity="1"
     id="g118"
     transform="translate(0.00312212,-95.680471)"
     style="fill:#ffffff">
    <g
       transform="translate(309.62105,213.70667)"
       id="g116"
       style="fill:#ffffff">
      <g
         id="g114"
         style="fill:#ffffff">
        <path
           d="m 17.28125,-10.890625 c 0.226562,0.292969 -0.0625,0.824219 -0.875,1.59375 -0.8125,0.773437 -1.679688,1.421875 -2.59375,1.953125 -0.917969,0.523438 -1.980469,1.042969 -3.1875,1.5625 -0.804688,0.34375 -1.65625,0.460938 -2.5625,0.34375 -0.898438,-0.113281 -1.34375,-0.65625 -1.34375,-1.625 0,-0.976562 0.222656,-1.945312 0.671875,-2.90625 0.457031,-0.988281 0.554687,-1.5 0.296875,-1.53125 -0.25,-0.03125 -0.777344,0.210938 -1.578125,0.71875 -2.085937,1.367188 -4.015625,2.929688 -5.796875,4.6875 -0.488281,0.585938 -1.101562,0.90625 -1.84375,0.96875 -0.375,0 -0.664062,-0.117188 -0.875,-0.359375 -0.21875,-0.238281 -0.242188,-0.5 -0.078125,-0.78125 1.28125,-2.363281 2.5703125,-4.703125 3.875,-7.015625 0.289063,-0.488281 0.726563,-0.789062 1.3125,-0.90625 0.25,-0.03906 0.476563,0.03906 0.6875,0.234375 0.207031,0.199219 0.3125,0.421875 0.3125,0.671875 -0.023437,0.230469 -0.117187,0.507812 -0.28125,0.828125 -0.074219,0.1875 -0.140625,0.371094 -0.203125,0.546875 -0.0625,0.167969 -0.085938,0.3125 -0.0625,0.4375 0.019531,0.117188 0.109375,0.148438 0.265625,0.09375 0.21875,-0.113281 0.4375,-0.234375 0.65625,-0.359375 0.550781,-0.320313 1.082031,-0.628906 1.59375,-0.921875 0.445313,-0.257812 0.914063,-0.488281 1.40625,-0.6875 0.5,-0.207031 1.019531,-0.347656 1.5625,-0.421875 0.875,-0.0625 1.492187,0.136719 1.859375,0.59375 0.363281,0.449219 0.40625,1.074219 0.125,1.875 -0.292969,0.71875 -0.601562,1.4375 -0.921875,2.15625 -0.386719,0.667969 -0.449219,1.179687 -0.1875,1.53125 0.257813,0.34375 1.472656,-0.054687 3.640625,-1.203125 l 1.640625,-0.96875 c 1.539063,-0.988281 2.367187,-1.359375 2.484375,-1.109375 z m -9.453125,-11.03125 c 0.164063,-0.25 0.378906,-0.40625 0.640625,-0.46875 0.269531,-0.07031 0.566406,-0.09375 0.890625,-0.0625 0.039063,0 0.09375,0 0.15625,0 0.125,0.03125 0.253906,0.04687 0.390625,0.04687 0.664062,0.15625 1.03125,0.382812 1.09375,0.671875 0.07031,0.292969 -0.0078,0.601563 -0.234375,0.921875 -0.21875,0.3125 -0.476563,0.605469 -0.765625,0.875 -0.679688,0.71875 -1.351562,1.5625 -2.015625,2.53125 -0.554687,0.792969 -1.042969,1.421875 -1.46875,1.890625 -0.429687,0.46875 -0.761719,0.527344 -1,0.171875 -0.242187,-0.1875 -0.371094,-0.410156 -0.390625,-0.671875 -0.011719,-0.257813 0.00781,-0.53125 0.0625,-0.8125 0.21875,-0.84375 0.523438,-1.625 0.921875,-2.34375 0.40625,-0.71875 0.847656,-1.425781 1.328125,-2.125 0.132812,-0.21875 0.265625,-0.425781 0.390625,-0.625 z m 0,0"
           id="path112"
           style="fill:#ffffff" />
      </g>
    </g>
  </g>
  <g
     fill="#000000"
     fill-opacity="1"
     id="g126"
     transform="translate(0.00312212,-95.680471)"
     style="fill:#ffffff">
    <g
       transform="translate(325.61375,213.70667)"
       id="g124"
       style="fill:#ffffff">
      <g
         id="g122"
         style="fill:#ffffff">
        <path
           d="m 10.5625,-11.0625 c -2.304688,0.855469 -3.960938,1.554688 -4.96875,2.09375 -0.75,0.367188 -1.183594,0.667969 -1.296875,0.90625 -0.105469,0.242188 -0.015625,0.679688 0.265625,1.3125 0,0.03125 0.019531,0.078125 0.0625,0.140625 0.320312,0.773437 0.507812,1.570313 0.5625,2.390625 0.101562,1.679688 -1.320312,2.855469 -4.265625,3.53125 -2.9375,0.6679688 -4.90625,0.6875 -5.90625,0.0625 -1,-0.632812 -1.304687,-1.429688 -0.921875,-2.390625 0.386719,-0.957031 1.386719,-1.929687 3,-2.921875 1.617188,-0.988281 2.695312,-1.703125 3.234375,-2.140625 C 0.878906,-8.515625 1.046875,-9 0.828125,-9.53125 0.753906,-9.71875 0.675781,-9.910156 0.59375,-10.109375 0.40625,-10.554688 0.207031,-11.019531 0,-11.5 c -0.375,-0.875 -0.535156,-1.734375 -0.484375,-2.578125 0.042969,-0.84375 0.351563,-1.550781 0.921875,-2.125 0.582031,-0.570313 1.476562,-0.878906 2.6875,-0.921875 0.675781,-0.03125 1.285156,0.05859 1.828125,0.265625 0.539063,0.210937 0.96875,0.601563 1.28125,1.171875 0.269531,0.398438 0.191406,0.75 -0.234375,1.0625 -0.273438,0.21875 -0.570312,0.25 -0.890625,0.09375 -0.210937,-0.08203 -0.40625,-0.207031 -0.59375,-0.375 0,-0.03906 0,-0.0625 0,-0.0625 C 4.429688,-15.03125 4.351562,-15.085938 4.28125,-15.140625 4.1875,-15.273438 4.09375,-15.378906 4,-15.453125 3.613281,-15.722656 3.226562,-15.800781 2.84375,-15.6875 c -0.386719,0.105469 -0.671875,0.398438 -0.859375,0.875 -0.125,0.375 -0.1875,0.761719 -0.1875,1.15625 0.019531,0.480469 0.125,0.945312 0.3125,1.390625 0.132813,0.28125 0.253906,0.539063 0.359375,0.765625 0.25,0.636719 0.453125,1.078125 0.609375,1.328125 0.15625,0.242187 0.347656,0.34375 0.578125,0.3125 0.226562,-0.039063 2.289062,-0.785156 6.1875,-2.234375 0.84375,-0.269531 1.082031,0.07422 0.71875,1.03125 z M 1.109375,-2.734375 C 2.128906,-3.078125 2.5625,-3.757812 2.40625,-4.78125 2.40625,-4.851562 2.390625,-4.929688 2.359375,-5.015625 2.296875,-5.566406 2.175781,-5.992188 2,-6.296875 1.832031,-6.597656 1.441406,-6.585938 0.828125,-6.265625 c -1.507813,0.867187 -2.90625,1.871094 -4.1875,3.015625 -0.082031,0.105469 -0.160156,0.199219 -0.234375,0.28125 0,0 -0.015625,0.023438 -0.046875,0.0625 -0.09375,0.117188 -0.109375,0.246094 -0.046875,0.390625 0.0625,0.148437 0.195312,0.21875 0.390625,0.21875 1.5,0.242187 2.96875,0.09375 4.40625,-0.4375 z m 0,0"
           id="path120"
           style="fill:#ffffff" />
      </g>
    </g>
  </g>
  <g
     fill="#000000"
     fill-opacity="1"
     id="g134"
     transform="translate(0.00312212,-95.680471)"
     style="fill:#ffffff">
    <g
       transform="translate(335.2792,213.70667)"
       id="g132"
       style="fill:#ffffff">
      <g
         id="g130"
         style="fill:#ffffff">
        <path
           d="m 16.90625,-11.125 c 0.113281,0.15625 0.140625,0.320312 0.07813,0.484375 -0.05469,0.15625 -0.15625,0.296875 -0.3125,0.421875 -1,0.90625 -2.121094,1.632812 -3.359375,2.171875 -2.125,0.992187 -4.351562,1.601563 -6.671875,1.828125 -1.835937,0.1875 -3.585937,-0.085938 -5.25,-0.828125 -0.605469,-0.28125 -1.054687,-0.132813 -1.34375,0.4375 -0.40625,0.804687 -0.835937,1.601563 -1.296875,2.390625 -0.21875,0.460938 -0.457031,0.929688 -0.71875,1.40625 -0.019531,0.054688 -0.046875,0.117188 -0.078125,0.1875 -0.101563,0.167969 -0.203125,0.324219 -0.296875,0.46875 -0.09375,0.148438 -0.257812,0.246094 -0.5,0.296875 -0.113281,0.03125 -0.234375,0.046875 -0.359375,0.046875 -0.132813,0 -0.253906,-0.023438 -0.359375,-0.078125 -0.082031,-0.070313 -0.15625,-0.171875 -0.21875,-0.296875 -0.070312,-0.125 -0.109375,-0.253906 -0.109375,-0.390625 0.105469,-0.414063 0.25,-0.828125 0.4375,-1.234375 0.40625,-0.9375 0.808594,-1.851562 1.203125,-2.75 0.992188,-2.300781 2.03125,-4.570312 3.125,-6.8125 3.007812,-6.1875 5.875,-12.425781 8.59375,-18.71875 0.21875,-0.613281 0.515625,-1.160156 0.890625,-1.640625 0.289063,-0.34375 0.691406,-0.4375 1.203125,-0.28125 0.519531,0.21875 0.679688,0.589844 0.484375,1.109375 -0.355469,1.074219 -0.734375,2.15625 -1.140625,3.25 -2.023438,4.992188 -4.230469,9.886719 -6.625,14.6875 -0.511719,1.03125 -0.695312,1.683594 -0.546875,1.953125 0.144531,0.273437 0.484375,0.296875 1.015625,0.07813 0.539062,-0.226562 1.171875,-0.535156 1.890625,-0.921875 0.5,-0.289063 1.003906,-0.546875 1.515625,-0.765625 0.101562,-0.07031 0.195312,-0.117188 0.28125,-0.140625 0.613281,-0.351563 1.28125,-0.546875 2,-0.578125 0.269531,0 0.472656,0.125 0.609375,0.375 0.07031,0.15625 0.07031,0.296875 0,0.421875 -0.0625,0.117187 -0.148437,0.199219 -0.25,0.25 -1.085937,0.648437 -2.1875,1.261719 -3.3125,1.84375 -0.542969,0.242187 -1.105469,0.507813 -1.6875,0.796875 -0.5625,0.261719 -1.121094,0.539062 -1.671875,0.828125 -0.375,0.21875 -0.726562,0.476563 -1.046875,0.765625 -0.742187,0.773438 -0.664063,1.414062 0.234375,1.921875 0.738281,0.324219 1.484375,0.496094 2.234375,0.515625 0.75,0.011719 1.5,-0.082031 2.25,-0.28125 2.289063,-0.5 4.445313,-1.332031 6.46875,-2.5 0.164063,-0.09375 0.328125,-0.171875 0.484375,-0.234375 0.375,-0.25 0.773438,-0.46875 1.203125,-0.65625 0.15625,-0.07031 0.328125,-0.101563 0.515625,-0.09375 0.195312,0.01172 0.34375,0.101563 0.4375,0.265625 z m 0,0"
           id="path128"
           style="fill:#ffffff" />
      </g>
    </g>
  </g>
  <g
     fill="#000000"
     fill-opacity="1"
     id="g142"
     transform="translate(0.00312212,-95.680471)"
     style="fill:#ffffff">
    <g
       transform="translate(350.63919,213.70667)"
       id="g140"
       style="fill:#ffffff">
      <g
         id="g138"
         style="fill:#ffffff">
        <path
           d="m 8.671875,-9.1875 c -0.78125,0.917969 -1.703125,1.761719 -2.765625,2.53125 -1.054688,0.773438 -2.25,1.292969 -3.59375,1.5625 -1.335938,0.273438 -2.3671875,0.171875 -3.109375,-0.296875 -0.75,-0.46875 -0.898437,-1.5 -0.453125,-3.09375 0.585938,-1.65625 1.382812,-3.234375 2.40625,-4.734375 0.226562,-0.320312 0.5625,-0.550781 1,-0.6875 0.320312,-0.07031 0.601562,-0.01563 0.84375,0.171875 0.238281,0.179687 0.328125,0.40625 0.265625,0.6875 -0.210937,0.523437 -0.449219,1.046875 -0.71875,1.578125 -0.261719,0.523438 -0.433594,0.859375 -0.515625,1.015625 -0.511719,0.929687 -0.871094,1.902344 -1.078125,2.921875 0,0.585938 0.773437,0.621094 2.328125,0.109375 1.5625,-0.507813 3.078125,-1.441406 4.546875,-2.796875 C 9.296875,-11.582031 10,-11.984375 9.9375,-11.421875 9.875,-10.859375 9.453125,-10.113281 8.671875,-9.1875 Z M 4.859375,-16.5 c -0.074219,0.0625 -0.226563,0.136719 -0.453125,0.21875 -0.21875,0.07422 -0.460938,0.132812 -0.71875,0.171875 -0.25,0.03125 -0.449219,-0.0078 -0.59375,-0.125 -0.148438,-0.113281 -0.152344,-0.347656 -0.015625,-0.703125 0.226563,-0.601562 0.46875,-1.132812 0.71875,-1.59375 0.257813,-0.457031 0.59375,-0.960938 1,-1.515625 0.257813,-0.25 0.539063,-0.382813 0.84375,-0.40625 0.3125,-0.01953 0.566406,0.0625 0.765625,0.25 0.207031,0.179687 0.269531,0.421875 0.1875,0.734375 -0.324219,1.15625 -0.902344,2.148438 -1.734375,2.96875 z m 0,0"
           id="path136"
           style="fill:#ffffff" />
      </g>
    </g>
  </g>
  <path
     stroke-linecap="butt"
     fill="none"
     stroke-linejoin="miter"
     d="M 0.00312212,1.2296849 H 87.327306"
     stroke="#000000"
     stroke-width="2.45937"
     stroke-opacity="1"
     stroke-miterlimit="4"
     id="path144"
     style="fill:none;stroke:#ffffff;stroke-opacity:1" />
  <path
     stroke-linecap="butt"
     fill="none"
     stroke-linejoin="miter"
     d="M 229.62031,1.2296849 H 375.00306"
     stroke="#000000"
     stroke-width="2.45937"
     stroke-opacity="1"
     stroke-miterlimit="4"
     id="path146"
     style="fill:none;stroke:#ffffff;stroke-opacity:1" />
  <path
     stroke-linecap="butt"
     fill="none"
     stroke-linejoin="miter"
     d="M 373.77265,0.0031229 V 185.30383"
     stroke="#000000"
     stroke-width="2.45937"
     stroke-opacity="1"
     stroke-miterlimit="4"
     id="path148"
     style="fill:none;stroke:#ffffff;stroke-opacity:1" />
  <path
     stroke-linecap="butt"
     fill="none"
     stroke-linejoin="miter"
     d="M 0.00312212,184.07343 H 375.00297"
     stroke="#000000"
     stroke-width="2.45937"
     stroke-opacity="1"
     stroke-miterlimit="4"
     id="path150"
     style="fill:none;stroke:#ffffff;stroke-opacity:1" />
  <path
     stroke-linecap="butt"
     fill="none"
     stroke-linejoin="miter"
     d="M 1.2296849,2.4640599 V 185.30383"
     stroke="#000000"
     stroke-width="2.45937"
     stroke-opacity="1"
     stroke-miterlimit="4"
     id="path152"
     style="fill:none;stroke:#ffffff;stroke-opacity:1" />
</svg>
